G04 #@! TF.FileFunction,Soldermask,Bot*
%FSLAX46Y46*%
G04 Gerber Fmt 4.6, Leading zero omitted, Abs format (unit mm)*
G04 Created by KiCad (PCBNEW 4.0.6) date 06/10/17 11:37:53*
%MOMM*%
%LPD*%
G01*
G04 APERTURE LIST*
%ADD10C,0.150000*%
%ADD11R,1.800000X1.800000*%
%ADD12O,1.800000X1.800000*%
%ADD13R,1.600000X1.600000*%
%ADD14O,1.600000X1.600000*%
%ADD15C,1.500000*%
%ADD16C,1.397000*%
%ADD17R,1.500000X1.500000*%
%ADD18C,1.900000*%
G04 APERTURE END LIST*
D10*
D11*
X229870000Y-119380000D03*
D12*
X232410000Y-119380000D03*
X234950000Y-119380000D03*
D13*
X198120000Y-119380000D03*
D14*
X205740000Y-127000000D03*
X198120000Y-121920000D03*
X205740000Y-124460000D03*
X198120000Y-124460000D03*
X205740000Y-121920000D03*
X198120000Y-127000000D03*
X205740000Y-119380000D03*
D13*
X198120000Y-135890000D03*
D14*
X205740000Y-143510000D03*
X198120000Y-138430000D03*
X205740000Y-140970000D03*
X198120000Y-140970000D03*
X205740000Y-138430000D03*
X198120000Y-143510000D03*
X205740000Y-135890000D03*
D13*
X198120000Y-153670000D03*
D14*
X205740000Y-161290000D03*
X198120000Y-156210000D03*
X205740000Y-158750000D03*
X198120000Y-158750000D03*
X205740000Y-156210000D03*
X198120000Y-161290000D03*
X205740000Y-153670000D03*
D15*
X213360000Y-166370000D03*
X215900000Y-166370000D03*
D16*
X172720000Y-157480000D03*
X175260000Y-157480000D03*
X179070000Y-157480000D03*
X181610000Y-157480000D03*
X172720000Y-163830000D03*
X175260000Y-163830000D03*
X179070000Y-163830000D03*
X181610000Y-163830000D03*
X172720000Y-171450000D03*
X175260000Y-171450000D03*
X179070000Y-171450000D03*
X181610000Y-171450000D03*
X223520000Y-154940000D03*
X226060000Y-154940000D03*
X229870000Y-154940000D03*
X232410000Y-154940000D03*
X223520000Y-161290000D03*
X226060000Y-161290000D03*
X229870000Y-161290000D03*
X232410000Y-161290000D03*
X223520000Y-167640000D03*
X226060000Y-167640000D03*
X229870000Y-167640000D03*
X232410000Y-167640000D03*
D11*
X199390000Y-172720000D03*
D12*
X201930000Y-172720000D03*
X204470000Y-172720000D03*
D17*
X219710000Y-149860000D03*
D15*
X219710000Y-147320000D03*
X219710000Y-144780000D03*
X219710000Y-142240000D03*
D17*
X232410000Y-149860000D03*
D15*
X232410000Y-147320000D03*
X232410000Y-144780000D03*
X232410000Y-142240000D03*
D11*
X217170000Y-119380000D03*
D12*
X219710000Y-119380000D03*
X222250000Y-119380000D03*
D11*
X217170000Y-127000000D03*
D12*
X219710000Y-127000000D03*
X222250000Y-127000000D03*
D11*
X217170000Y-134620000D03*
D12*
X219710000Y-134620000D03*
X222250000Y-134620000D03*
D11*
X229870000Y-127000000D03*
D12*
X232410000Y-127000000D03*
X234950000Y-127000000D03*
D11*
X229870000Y-134620000D03*
D12*
X232410000Y-134620000D03*
X234950000Y-134620000D03*
D18*
X182880000Y-130810000D03*
X182880000Y-128270000D03*
X182880000Y-125730000D03*
X182880000Y-120650000D03*
X172720000Y-151130000D03*
X175260000Y-151130000D03*
X177800000Y-151130000D03*
X180340000Y-151130000D03*
X182880000Y-151130000D03*
X170180000Y-120650000D03*
X170180000Y-123190000D03*
X170180000Y-125730000D03*
X170180000Y-128270000D03*
X170180000Y-130810000D03*
X170180000Y-133350000D03*
X170180000Y-135890000D03*
X170180000Y-138430000D03*
X170180000Y-140970000D03*
X170180000Y-143510000D03*
X170180000Y-146050000D03*
X170180000Y-148590000D03*
X170180000Y-151130000D03*
X185420000Y-151130000D03*
X185420000Y-148590000D03*
X185420000Y-146050000D03*
X185420000Y-143510000D03*
X185420000Y-140970000D03*
X185420000Y-138430000D03*
X185420000Y-135890000D03*
X185420000Y-133350000D03*
X185420000Y-130810000D03*
X185420000Y-128270000D03*
X185420000Y-125730000D03*
X185420000Y-123190000D03*
X185420000Y-120650000D03*
X185420000Y-118110000D03*
X170180000Y-118110000D03*
D17*
X213360000Y-156210000D03*
D15*
X215900000Y-156210000D03*
M02*
