M48
;DRILL file {KiCad 4.0.6} date 06/12/17 17:35:23
;FORMAT={-:-/ absolute / metric / decimal}
FMAT,2
METRIC,TZ
T1C0.600
T2C0.635
T3C0.800
T4C0.813
T5C1.000
T6C1.016
%
G90
G05
M71
T1
X213.36Y-156.21
X215.9Y-156.21
X219.71Y-142.24
X219.71Y-144.78
X219.71Y-147.32
X219.71Y-149.86
X232.41Y-142.24
X232.41Y-144.78
X232.41Y-147.32
X232.41Y-149.86
T2
X180.975Y-161.925
X182.245Y-160.655
X187.325Y-135.255
X188.595Y-161.925
X189.865Y-160.655
X193.04Y-116.84
X193.04Y-123.825
X198.755Y-129.54
X200.66Y-118.11
X200.66Y-140.335
X207.01Y-125.73
X208.28Y-121.92
X210.185Y-170.815
X212.09Y-132.08
X213.995Y-169.545
X218.44Y-138.43
X221.615Y-140.335
X221.615Y-146.685
X221.615Y-152.4
X222.25Y-138.43
X222.25Y-170.815
X223.52Y-145.415
X223.52Y-151.765
X231.14Y-138.43
X233.68Y-138.43
X236.22Y-137.16
X236.22Y-139.7
T3
X198.12Y-119.38
X198.12Y-121.92
X198.12Y-124.46
X198.12Y-127.
X198.12Y-135.89
X198.12Y-138.43
X198.12Y-140.97
X198.12Y-143.51
X198.12Y-153.67
X198.12Y-156.21
X198.12Y-158.75
X198.12Y-161.29
X205.74Y-119.38
X205.74Y-121.92
X205.74Y-124.46
X205.74Y-127.
X205.74Y-135.89
X205.74Y-138.43
X205.74Y-140.97
X205.74Y-143.51
X205.74Y-153.67
X205.74Y-156.21
X205.74Y-158.75
X205.74Y-161.29
T4
X172.72Y-157.48
X172.72Y-163.83
X172.72Y-171.45
X175.26Y-157.48
X175.26Y-163.83
X175.26Y-171.45
X179.07Y-157.48
X179.07Y-163.83
X179.07Y-171.45
X181.61Y-157.48
X181.61Y-163.83
X181.61Y-171.45
X223.52Y-154.94
X223.52Y-161.29
X223.52Y-167.64
X226.06Y-154.94
X226.06Y-161.29
X226.06Y-167.64
X229.87Y-154.94
X229.87Y-161.29
X229.87Y-167.64
X232.41Y-154.94
X232.41Y-161.29
X232.41Y-167.64
T5
X199.39Y-172.72
X201.93Y-172.72
X204.47Y-172.72
X217.17Y-119.38
X217.17Y-127.
X217.17Y-134.62
X219.71Y-119.38
X219.71Y-127.
X219.71Y-134.62
X222.25Y-119.38
X222.25Y-127.
X222.25Y-134.62
X229.87Y-119.38
X229.87Y-127.
X229.87Y-134.62
X232.41Y-119.38
X232.41Y-127.
X232.41Y-134.62
X234.95Y-119.38
X234.95Y-127.
X234.95Y-134.62
T6
X170.18Y-118.11
X170.18Y-120.65
X170.18Y-123.19
X170.18Y-125.73
X170.18Y-128.27
X170.18Y-130.81
X170.18Y-133.35
X170.18Y-135.89
X170.18Y-138.43
X170.18Y-140.97
X170.18Y-143.51
X170.18Y-146.05
X170.18Y-148.59
X170.18Y-151.13
X172.72Y-151.13
X175.26Y-151.13
X177.8Y-151.13
X180.34Y-151.13
X182.88Y-120.65
X182.88Y-125.73
X182.88Y-128.27
X182.88Y-130.81
X182.88Y-151.13
X185.42Y-118.11
X185.42Y-120.65
X185.42Y-123.19
X185.42Y-125.73
X185.42Y-128.27
X185.42Y-130.81
X185.42Y-133.35
X185.42Y-135.89
X185.42Y-138.43
X185.42Y-140.97
X185.42Y-143.51
X185.42Y-146.05
X185.42Y-148.59
X185.42Y-151.13
T5
X173.07Y-180.61G85X173.07Y-182.61
G05
X175.07Y-186.31G85X177.07Y-186.31
G05
X179.07Y-180.61G85X179.07Y-182.61
G05
T0
M30
