G04 #@! TF.FileFunction,Copper,L2,Bot,Signal*
%FSLAX46Y46*%
G04 Gerber Fmt 4.6, Leading zero omitted, Abs format (unit mm)*
G04 Created by KiCad (PCBNEW 4.0.6) date 06/10/17 11:37:53*
%MOMM*%
%LPD*%
G01*
G04 APERTURE LIST*
%ADD10C,0.150000*%
%ADD11R,1.800000X1.800000*%
%ADD12O,1.800000X1.800000*%
%ADD13R,1.600000X1.600000*%
%ADD14O,1.600000X1.600000*%
%ADD15C,1.500000*%
%ADD16C,1.397000*%
%ADD17R,1.500000X1.500000*%
%ADD18C,1.900000*%
%ADD19C,0.889000*%
%ADD20C,0.254000*%
G04 APERTURE END LIST*
D10*
D11*
X229870000Y-119380000D03*
D12*
X232410000Y-119380000D03*
X234950000Y-119380000D03*
D13*
X198120000Y-119380000D03*
D14*
X205740000Y-127000000D03*
X198120000Y-121920000D03*
X205740000Y-124460000D03*
X198120000Y-124460000D03*
X205740000Y-121920000D03*
X198120000Y-127000000D03*
X205740000Y-119380000D03*
D13*
X198120000Y-135890000D03*
D14*
X205740000Y-143510000D03*
X198120000Y-138430000D03*
X205740000Y-140970000D03*
X198120000Y-140970000D03*
X205740000Y-138430000D03*
X198120000Y-143510000D03*
X205740000Y-135890000D03*
D13*
X198120000Y-153670000D03*
D14*
X205740000Y-161290000D03*
X198120000Y-156210000D03*
X205740000Y-158750000D03*
X198120000Y-158750000D03*
X205740000Y-156210000D03*
X198120000Y-161290000D03*
X205740000Y-153670000D03*
D15*
X213360000Y-166370000D03*
X215900000Y-166370000D03*
D16*
X172720000Y-157480000D03*
X175260000Y-157480000D03*
X179070000Y-157480000D03*
X181610000Y-157480000D03*
X172720000Y-163830000D03*
X175260000Y-163830000D03*
X179070000Y-163830000D03*
X181610000Y-163830000D03*
X172720000Y-171450000D03*
X175260000Y-171450000D03*
X179070000Y-171450000D03*
X181610000Y-171450000D03*
X223520000Y-154940000D03*
X226060000Y-154940000D03*
X229870000Y-154940000D03*
X232410000Y-154940000D03*
X223520000Y-161290000D03*
X226060000Y-161290000D03*
X229870000Y-161290000D03*
X232410000Y-161290000D03*
X223520000Y-167640000D03*
X226060000Y-167640000D03*
X229870000Y-167640000D03*
X232410000Y-167640000D03*
D11*
X199390000Y-172720000D03*
D12*
X201930000Y-172720000D03*
X204470000Y-172720000D03*
D17*
X219710000Y-149860000D03*
D15*
X219710000Y-147320000D03*
X219710000Y-144780000D03*
X219710000Y-142240000D03*
D17*
X232410000Y-149860000D03*
D15*
X232410000Y-147320000D03*
X232410000Y-144780000D03*
X232410000Y-142240000D03*
D11*
X217170000Y-119380000D03*
D12*
X219710000Y-119380000D03*
X222250000Y-119380000D03*
D11*
X217170000Y-127000000D03*
D12*
X219710000Y-127000000D03*
X222250000Y-127000000D03*
D11*
X217170000Y-134620000D03*
D12*
X219710000Y-134620000D03*
X222250000Y-134620000D03*
D11*
X229870000Y-127000000D03*
D12*
X232410000Y-127000000D03*
X234950000Y-127000000D03*
D11*
X229870000Y-134620000D03*
D12*
X232410000Y-134620000D03*
X234950000Y-134620000D03*
D18*
X182880000Y-130810000D03*
X182880000Y-128270000D03*
X182880000Y-125730000D03*
X182880000Y-120650000D03*
X172720000Y-151130000D03*
X175260000Y-151130000D03*
X177800000Y-151130000D03*
X180340000Y-151130000D03*
X182880000Y-151130000D03*
X170180000Y-120650000D03*
X170180000Y-123190000D03*
X170180000Y-125730000D03*
X170180000Y-128270000D03*
X170180000Y-130810000D03*
X170180000Y-133350000D03*
X170180000Y-135890000D03*
X170180000Y-138430000D03*
X170180000Y-140970000D03*
X170180000Y-143510000D03*
X170180000Y-146050000D03*
X170180000Y-148590000D03*
X170180000Y-151130000D03*
X185420000Y-151130000D03*
X185420000Y-148590000D03*
X185420000Y-146050000D03*
X185420000Y-143510000D03*
X185420000Y-140970000D03*
X185420000Y-138430000D03*
X185420000Y-135890000D03*
X185420000Y-133350000D03*
X185420000Y-130810000D03*
X185420000Y-128270000D03*
X185420000Y-125730000D03*
X185420000Y-123190000D03*
X185420000Y-120650000D03*
X185420000Y-118110000D03*
X170180000Y-118110000D03*
D17*
X213360000Y-156210000D03*
D15*
X215900000Y-156210000D03*
D19*
X198755000Y-129540000D03*
X187325000Y-135255000D03*
X223520000Y-145415000D03*
X218440000Y-138430000D03*
X222250000Y-138430000D03*
X223520000Y-151765000D03*
X207010000Y-125730000D03*
X212090000Y-132080000D03*
X208280000Y-121920000D03*
X200660000Y-118110000D03*
X200660000Y-140335000D03*
X221615000Y-140335000D03*
X221615000Y-146685000D03*
X221615000Y-152400000D03*
X236220000Y-139700000D03*
X236220000Y-137160000D03*
X210185000Y-170815000D03*
X222250000Y-170815000D03*
X182245000Y-160655000D03*
X189865000Y-160655000D03*
X213995000Y-169545000D03*
X180975000Y-161925000D03*
X188595000Y-161925000D03*
X231140000Y-138430000D03*
X233680000Y-138430000D03*
X193040000Y-116840000D03*
X193040000Y-123825000D03*
D20*
X198120000Y-119380000D02*
X200660000Y-119380000D01*
X212725000Y-114935000D02*
X217170000Y-119380000D01*
X205105000Y-114935000D02*
X212725000Y-114935000D01*
X200660000Y-119380000D02*
X205105000Y-114935000D01*
X172720000Y-157480000D02*
X172720000Y-156210000D01*
X194310000Y-119380000D02*
X198120000Y-119380000D01*
X188595000Y-125095000D02*
X194310000Y-119380000D01*
X188595000Y-151130000D02*
X188595000Y-125095000D01*
X186055000Y-153670000D02*
X188595000Y-151130000D01*
X175260000Y-153670000D02*
X186055000Y-153670000D01*
X172720000Y-156210000D02*
X175260000Y-153670000D01*
X185420000Y-130810000D02*
X186690000Y-130810000D01*
X201295000Y-127000000D02*
X205740000Y-127000000D01*
X198755000Y-129540000D02*
X201295000Y-127000000D01*
X187325000Y-131445000D02*
X187325000Y-135255000D01*
X186690000Y-130810000D02*
X187325000Y-131445000D01*
X198120000Y-121920000D02*
X193040000Y-121920000D01*
X182245000Y-154305000D02*
X179070000Y-157480000D01*
X186690000Y-154305000D02*
X182245000Y-154305000D01*
X189230000Y-151765000D02*
X186690000Y-154305000D01*
X189230000Y-125730000D02*
X189230000Y-151765000D01*
X193040000Y-121920000D02*
X189230000Y-125730000D01*
X223520000Y-151765000D02*
X223520000Y-145415000D01*
X218440000Y-138430000D02*
X222250000Y-138430000D01*
X207010000Y-125730000D02*
X212090000Y-130810000D01*
X212090000Y-130810000D02*
X212090000Y-132080000D01*
X217170000Y-127000000D02*
X220345000Y-130175000D01*
X225425000Y-153035000D02*
X223520000Y-154940000D01*
X225425000Y-130810000D02*
X225425000Y-153035000D01*
X224790000Y-130175000D02*
X225425000Y-130810000D01*
X220345000Y-130175000D02*
X224790000Y-130175000D01*
X213360000Y-127000000D02*
X217170000Y-127000000D01*
X208280000Y-121920000D02*
X213360000Y-127000000D01*
X217170000Y-134620000D02*
X213360000Y-134620000D01*
X201295000Y-132715000D02*
X198120000Y-135890000D01*
X211455000Y-132715000D02*
X201295000Y-132715000D01*
X213360000Y-134620000D02*
X211455000Y-132715000D01*
X185420000Y-125730000D02*
X186055000Y-125730000D01*
X186055000Y-125730000D02*
X193675000Y-118110000D01*
X193675000Y-118110000D02*
X194945000Y-116840000D01*
X194945000Y-116840000D02*
X199390000Y-116840000D01*
X199390000Y-116840000D02*
X200660000Y-118110000D01*
X200660000Y-140335000D02*
X198755000Y-138430000D01*
X198755000Y-138430000D02*
X198120000Y-138430000D01*
X205740000Y-140970000D02*
X208280000Y-140970000D01*
X220980000Y-155575000D02*
X226060000Y-160655000D01*
X220980000Y-153670000D02*
X220980000Y-155575000D01*
X208280000Y-140970000D02*
X220980000Y-153670000D01*
X226060000Y-160655000D02*
X226060000Y-161290000D01*
X205740000Y-138430000D02*
X216535000Y-138430000D01*
X220980000Y-139700000D02*
X221615000Y-140335000D01*
X217805000Y-139700000D02*
X220980000Y-139700000D01*
X216535000Y-138430000D02*
X217805000Y-139700000D01*
X221615000Y-146685000D02*
X221615000Y-152400000D01*
X205740000Y-138430000D02*
X205740000Y-137795000D01*
X205740000Y-137795000D02*
X206375000Y-138430000D01*
X236220000Y-139700000D02*
X236220000Y-137160000D01*
X198120000Y-153670000D02*
X200025000Y-155575000D01*
X227965000Y-128905000D02*
X229870000Y-127000000D01*
X227965000Y-168910000D02*
X227965000Y-128905000D01*
X226060000Y-170815000D02*
X227965000Y-168910000D01*
X201295000Y-170815000D02*
X210185000Y-170815000D01*
X222250000Y-170815000D02*
X226060000Y-170815000D01*
X200025000Y-169545000D02*
X201295000Y-170815000D01*
X200025000Y-155575000D02*
X200025000Y-169545000D01*
X170180000Y-146050000D02*
X168275000Y-146050000D01*
X203835000Y-159385000D02*
X205740000Y-161290000D01*
X203835000Y-154305000D02*
X203835000Y-159385000D01*
X201295000Y-151765000D02*
X203835000Y-154305000D01*
X196215000Y-151765000D02*
X201295000Y-151765000D01*
X195580000Y-152400000D02*
X196215000Y-151765000D01*
X195580000Y-158750000D02*
X195580000Y-152400000D01*
X193675000Y-160655000D02*
X195580000Y-158750000D01*
X169545000Y-160655000D02*
X182245000Y-160655000D01*
X189865000Y-160655000D02*
X193675000Y-160655000D01*
X167640000Y-158750000D02*
X169545000Y-160655000D01*
X167640000Y-146685000D02*
X167640000Y-158750000D01*
X168275000Y-146050000D02*
X167640000Y-146685000D01*
X210185000Y-167005000D02*
X212725000Y-169545000D01*
X212725000Y-169545000D02*
X213995000Y-169545000D01*
X205740000Y-158750000D02*
X206375000Y-158750000D01*
X206375000Y-158750000D02*
X210185000Y-162560000D01*
X210185000Y-162560000D02*
X210185000Y-167005000D01*
X170180000Y-143510000D02*
X167005000Y-143510000D01*
X194945000Y-161925000D02*
X198120000Y-158750000D01*
X168910000Y-161925000D02*
X180975000Y-161925000D01*
X188595000Y-161925000D02*
X194945000Y-161925000D01*
X166370000Y-159385000D02*
X168910000Y-161925000D01*
X166370000Y-144145000D02*
X166370000Y-159385000D01*
X167005000Y-143510000D02*
X166370000Y-144145000D01*
X233680000Y-138430000D02*
X231140000Y-138430000D01*
X213360000Y-156210000D02*
X212090000Y-156210000D01*
X187325000Y-116205000D02*
X185420000Y-118110000D01*
X192405000Y-116205000D02*
X187325000Y-116205000D01*
X193040000Y-116840000D02*
X192405000Y-116205000D01*
X189865000Y-127000000D02*
X193040000Y-123825000D01*
X189865000Y-149860000D02*
X189865000Y-127000000D01*
X191135000Y-151130000D02*
X189865000Y-149860000D01*
X207010000Y-151130000D02*
X191135000Y-151130000D01*
X212090000Y-156210000D02*
X207010000Y-151130000D01*
G36*
X201519423Y-117442947D02*
X201272286Y-117195378D01*
X200875668Y-117030687D01*
X200658128Y-117030498D01*
X199928815Y-116301185D01*
X199784864Y-116205000D01*
X199681605Y-116136004D01*
X199390000Y-116078000D01*
X194945000Y-116078000D01*
X194653395Y-116136004D01*
X194406184Y-116301185D01*
X194108420Y-116598949D01*
X193955689Y-116229311D01*
X193652286Y-115925378D01*
X193255668Y-115760687D01*
X193038128Y-115760498D01*
X192943815Y-115666185D01*
X192903124Y-115638996D01*
X192696605Y-115501004D01*
X192405000Y-115443000D01*
X187325000Y-115443000D01*
X187033395Y-115501004D01*
X186826876Y-115638996D01*
X186786185Y-115666185D01*
X185871220Y-116581150D01*
X185736659Y-116525276D01*
X185106107Y-116524725D01*
X184523343Y-116765519D01*
X184077086Y-117210997D01*
X183835276Y-117793341D01*
X183834725Y-118423893D01*
X184075519Y-119006657D01*
X184448471Y-119380261D01*
X184149739Y-119678471D01*
X183779003Y-119307086D01*
X183196659Y-119065276D01*
X182566107Y-119064725D01*
X181983343Y-119305519D01*
X181537086Y-119750997D01*
X181295276Y-120333341D01*
X181294725Y-120963893D01*
X181535519Y-121546657D01*
X181980997Y-121992914D01*
X182563341Y-122234724D01*
X183193893Y-122235275D01*
X183776657Y-121994481D01*
X184150261Y-121621529D01*
X184448471Y-121920261D01*
X184077086Y-122290997D01*
X183835276Y-122873341D01*
X183834725Y-123503893D01*
X184075519Y-124086657D01*
X184448471Y-124460261D01*
X184149739Y-124758471D01*
X183779003Y-124387086D01*
X183196659Y-124145276D01*
X182566107Y-124144725D01*
X181983343Y-124385519D01*
X181537086Y-124830997D01*
X181295276Y-125413341D01*
X181294725Y-126043893D01*
X181535519Y-126626657D01*
X181908471Y-127000261D01*
X181537086Y-127370997D01*
X181295276Y-127953341D01*
X181294725Y-128583893D01*
X181535519Y-129166657D01*
X181908471Y-129540261D01*
X181537086Y-129910997D01*
X181295276Y-130493341D01*
X181294725Y-131123893D01*
X181535519Y-131706657D01*
X181980997Y-132152914D01*
X182563341Y-132394724D01*
X183193893Y-132395275D01*
X183776657Y-132154481D01*
X184150261Y-131781529D01*
X184448471Y-132080261D01*
X184077086Y-132450997D01*
X183835276Y-133033341D01*
X183834725Y-133663893D01*
X184075519Y-134246657D01*
X184448471Y-134620261D01*
X184077086Y-134990997D01*
X183835276Y-135573341D01*
X183834725Y-136203893D01*
X184075519Y-136786657D01*
X184448471Y-137160261D01*
X184077086Y-137530997D01*
X183835276Y-138113341D01*
X183834725Y-138743893D01*
X184075519Y-139326657D01*
X184448471Y-139700261D01*
X184077086Y-140070997D01*
X183835276Y-140653341D01*
X183834725Y-141283893D01*
X184075519Y-141866657D01*
X184448471Y-142240261D01*
X184077086Y-142610997D01*
X183835276Y-143193341D01*
X183834725Y-143823893D01*
X184075519Y-144406657D01*
X184448471Y-144780261D01*
X184077086Y-145150997D01*
X183835276Y-145733341D01*
X183834725Y-146363893D01*
X184075519Y-146946657D01*
X184448471Y-147320261D01*
X184077086Y-147690997D01*
X183835276Y-148273341D01*
X183834725Y-148903893D01*
X184075519Y-149486657D01*
X184448471Y-149860261D01*
X184149739Y-150158471D01*
X183779003Y-149787086D01*
X183196659Y-149545276D01*
X182566107Y-149544725D01*
X181983343Y-149785519D01*
X181609739Y-150158471D01*
X181239003Y-149787086D01*
X180656659Y-149545276D01*
X180026107Y-149544725D01*
X179443343Y-149785519D01*
X179003884Y-150224211D01*
X178916350Y-150193255D01*
X177979605Y-151130000D01*
X178916350Y-152066745D01*
X179004439Y-152035593D01*
X179440997Y-152472914D01*
X180023341Y-152714724D01*
X180653893Y-152715275D01*
X181236657Y-152474481D01*
X181610261Y-152101529D01*
X181980997Y-152472914D01*
X182563341Y-152714724D01*
X183193893Y-152715275D01*
X183776657Y-152474481D01*
X184150261Y-152101529D01*
X184520997Y-152472914D01*
X185103341Y-152714724D01*
X185733893Y-152715275D01*
X186071656Y-152575714D01*
X185739370Y-152908000D01*
X175260000Y-152908000D01*
X174968395Y-152966004D01*
X174721184Y-153131185D01*
X172181185Y-155671185D01*
X172016004Y-155918395D01*
X171958000Y-156210000D01*
X171958000Y-156356461D01*
X171590173Y-156723647D01*
X171386732Y-157213587D01*
X171386269Y-157744086D01*
X171588854Y-158234380D01*
X171963647Y-158609827D01*
X172453587Y-158813268D01*
X172984086Y-158813731D01*
X173474380Y-158611146D01*
X173849827Y-158236353D01*
X173990094Y-157898554D01*
X174128854Y-158234380D01*
X174503647Y-158609827D01*
X174993587Y-158813268D01*
X175524086Y-158813731D01*
X176014380Y-158611146D01*
X176389827Y-158236353D01*
X176593268Y-157746413D01*
X176593731Y-157215914D01*
X176391146Y-156725620D01*
X176016353Y-156350173D01*
X175526413Y-156146732D01*
X174995914Y-156146269D01*
X174505620Y-156348854D01*
X174130173Y-156723647D01*
X173989906Y-157061446D01*
X173851146Y-156725620D01*
X173566826Y-156440804D01*
X175575631Y-154432000D01*
X181040370Y-154432000D01*
X179325647Y-156146723D01*
X178805914Y-156146269D01*
X178315620Y-156348854D01*
X177940173Y-156723647D01*
X177736732Y-157213587D01*
X177736269Y-157744086D01*
X177938854Y-158234380D01*
X178313647Y-158609827D01*
X178803587Y-158813268D01*
X179334086Y-158813731D01*
X179824380Y-158611146D01*
X180021681Y-158414188D01*
X180855417Y-158414188D01*
X180917071Y-158649800D01*
X181417480Y-158825927D01*
X181947199Y-158797148D01*
X182302929Y-158649800D01*
X182364583Y-158414188D01*
X181610000Y-157659605D01*
X180855417Y-158414188D01*
X180021681Y-158414188D01*
X180199827Y-158236353D01*
X180333314Y-157914882D01*
X180440200Y-158172929D01*
X180675812Y-158234583D01*
X181430395Y-157480000D01*
X181789605Y-157480000D01*
X182544188Y-158234583D01*
X182779800Y-158172929D01*
X182955927Y-157672520D01*
X182927148Y-157142801D01*
X182779800Y-156787071D01*
X182544188Y-156725417D01*
X181789605Y-157480000D01*
X181430395Y-157480000D01*
X181416253Y-157465858D01*
X181595858Y-157286253D01*
X181610000Y-157300395D01*
X182364583Y-156545812D01*
X182302929Y-156310200D01*
X181802520Y-156134073D01*
X181475807Y-156151823D01*
X182560630Y-155067000D01*
X186690000Y-155067000D01*
X186981605Y-155008996D01*
X187228815Y-154843815D01*
X189768815Y-152303816D01*
X189933996Y-152056605D01*
X189949101Y-151980668D01*
X189992000Y-151765000D01*
X189992000Y-151064631D01*
X190596184Y-151668815D01*
X190774129Y-151787714D01*
X190843395Y-151833996D01*
X191135000Y-151892000D01*
X195020595Y-151892000D01*
X194876004Y-152108395D01*
X194818000Y-152400000D01*
X194818000Y-158434370D01*
X193359370Y-159893000D01*
X190629642Y-159893000D01*
X190477286Y-159740378D01*
X190080668Y-159575687D01*
X189651216Y-159575313D01*
X189254311Y-159739311D01*
X188950378Y-160042714D01*
X188785687Y-160439332D01*
X188785333Y-160845665D01*
X188381216Y-160845313D01*
X187984311Y-161009311D01*
X187680378Y-161312714D01*
X187515687Y-161709332D01*
X187515313Y-162138784D01*
X187679311Y-162535689D01*
X187982714Y-162839622D01*
X188379332Y-163004313D01*
X188808784Y-163004687D01*
X189205689Y-162840689D01*
X189359646Y-162687000D01*
X194945000Y-162687000D01*
X195236605Y-162628996D01*
X195483815Y-162463815D01*
X196308591Y-161639039D01*
X196728096Y-161639039D01*
X196888959Y-162027423D01*
X197264866Y-162442389D01*
X197770959Y-162681914D01*
X197993000Y-162560629D01*
X197993000Y-161417000D01*
X196850085Y-161417000D01*
X196728096Y-161639039D01*
X196308591Y-161639039D01*
X196826875Y-161120755D01*
X196850085Y-161163000D01*
X197993000Y-161163000D01*
X197993000Y-161143000D01*
X198247000Y-161143000D01*
X198247000Y-161163000D01*
X198267000Y-161163000D01*
X198267000Y-161417000D01*
X198247000Y-161417000D01*
X198247000Y-162560629D01*
X198469041Y-162681914D01*
X198975134Y-162442389D01*
X199263000Y-162124612D01*
X199263000Y-169545000D01*
X199321004Y-169836605D01*
X199362903Y-169899311D01*
X199486185Y-170083815D01*
X200756184Y-171353815D01*
X200994188Y-171512844D01*
X200899156Y-171616538D01*
X200893162Y-171584683D01*
X200754090Y-171368559D01*
X200541890Y-171223569D01*
X200290000Y-171172560D01*
X198490000Y-171172560D01*
X198254683Y-171216838D01*
X198038559Y-171355910D01*
X197893569Y-171568110D01*
X197842560Y-171820000D01*
X197842560Y-173620000D01*
X197886838Y-173855317D01*
X198025910Y-174071441D01*
X198238110Y-174216431D01*
X198490000Y-174267440D01*
X200290000Y-174267440D01*
X200525317Y-174223162D01*
X200741441Y-174084090D01*
X200886431Y-173871890D01*
X200896766Y-173820854D01*
X201022424Y-173957966D01*
X201565258Y-174211046D01*
X201803000Y-174090997D01*
X201803000Y-172847000D01*
X201783000Y-172847000D01*
X201783000Y-172593000D01*
X201803000Y-172593000D01*
X201803000Y-172573000D01*
X202057000Y-172573000D01*
X202057000Y-172593000D01*
X202077000Y-172593000D01*
X202077000Y-172847000D01*
X202057000Y-172847000D01*
X202057000Y-174090997D01*
X202294742Y-174211046D01*
X202837576Y-173957966D01*
X203195499Y-173567418D01*
X203354519Y-173805409D01*
X203852509Y-174138155D01*
X204439928Y-174255000D01*
X204500072Y-174255000D01*
X205087491Y-174138155D01*
X205585481Y-173805409D01*
X205918227Y-173307419D01*
X206035072Y-172720000D01*
X205918227Y-172132581D01*
X205585481Y-171634591D01*
X205499290Y-171577000D01*
X209420358Y-171577000D01*
X209572714Y-171729622D01*
X209969332Y-171894313D01*
X210398784Y-171894687D01*
X210795689Y-171730689D01*
X211099622Y-171427286D01*
X211264313Y-171030668D01*
X211264687Y-170601216D01*
X211100689Y-170204311D01*
X210797286Y-169900378D01*
X210400668Y-169735687D01*
X209971216Y-169735313D01*
X209574311Y-169899311D01*
X209420354Y-170053000D01*
X201610631Y-170053000D01*
X200787000Y-169229370D01*
X200787000Y-155575000D01*
X200728996Y-155283395D01*
X200563815Y-155036185D01*
X199567440Y-154039810D01*
X199567440Y-152870000D01*
X199523162Y-152634683D01*
X199453870Y-152527000D01*
X200979370Y-152527000D01*
X203073000Y-154620631D01*
X203073000Y-159385000D01*
X203131004Y-159676605D01*
X203172903Y-159739311D01*
X203296185Y-159923815D01*
X204340843Y-160968473D01*
X204276887Y-161290000D01*
X204386120Y-161839151D01*
X204697189Y-162304698D01*
X205162736Y-162615767D01*
X205711887Y-162725000D01*
X205768113Y-162725000D01*
X206317264Y-162615767D01*
X206782811Y-162304698D01*
X207093880Y-161839151D01*
X207203113Y-161290000D01*
X207093880Y-160740849D01*
X206782811Y-160275302D01*
X206400725Y-160020000D01*
X206500621Y-159953251D01*
X209423000Y-162875631D01*
X209423000Y-167005000D01*
X209481004Y-167296605D01*
X209645948Y-167543461D01*
X209646185Y-167543815D01*
X212186184Y-170083815D01*
X212364129Y-170202714D01*
X212433395Y-170248996D01*
X212725000Y-170307000D01*
X213230358Y-170307000D01*
X213382714Y-170459622D01*
X213779332Y-170624313D01*
X214208784Y-170624687D01*
X214605689Y-170460689D01*
X214909622Y-170157286D01*
X215074313Y-169760668D01*
X215074687Y-169331216D01*
X214910689Y-168934311D01*
X214607286Y-168630378D01*
X214210668Y-168465687D01*
X213781216Y-168465313D01*
X213384311Y-168629311D01*
X213230354Y-168783000D01*
X213040631Y-168783000D01*
X210947000Y-166689370D01*
X210947000Y-166644285D01*
X211974760Y-166644285D01*
X212185169Y-167153515D01*
X212574436Y-167543461D01*
X213083298Y-167754759D01*
X213634285Y-167755240D01*
X214143515Y-167544831D01*
X214347183Y-167341517D01*
X215108088Y-167341517D01*
X215176077Y-167582460D01*
X215695171Y-167767201D01*
X216245448Y-167739230D01*
X216623923Y-167582460D01*
X216691912Y-167341517D01*
X215900000Y-166549605D01*
X215108088Y-167341517D01*
X214347183Y-167341517D01*
X214533461Y-167155564D01*
X214623377Y-166939021D01*
X214687540Y-167093923D01*
X214928483Y-167161912D01*
X215720395Y-166370000D01*
X216079605Y-166370000D01*
X216871517Y-167161912D01*
X217112460Y-167093923D01*
X217297201Y-166574829D01*
X217269230Y-166024552D01*
X217112460Y-165646077D01*
X216871517Y-165578088D01*
X216079605Y-166370000D01*
X215720395Y-166370000D01*
X214928483Y-165578088D01*
X214687540Y-165646077D01*
X214628268Y-165812621D01*
X214534831Y-165586485D01*
X214347157Y-165398483D01*
X215108088Y-165398483D01*
X215900000Y-166190395D01*
X216691912Y-165398483D01*
X216623923Y-165157540D01*
X216104829Y-164972799D01*
X215554552Y-165000770D01*
X215176077Y-165157540D01*
X215108088Y-165398483D01*
X214347157Y-165398483D01*
X214145564Y-165196539D01*
X213636702Y-164985241D01*
X213085715Y-164984760D01*
X212576485Y-165195169D01*
X212186539Y-165584436D01*
X211975241Y-166093298D01*
X211974760Y-166644285D01*
X210947000Y-166644285D01*
X210947000Y-162560000D01*
X210888996Y-162268395D01*
X210803651Y-162140668D01*
X210723816Y-162021185D01*
X207141157Y-158438527D01*
X207093880Y-158200849D01*
X206782811Y-157735302D01*
X206400725Y-157480000D01*
X206782811Y-157224698D01*
X207093880Y-156759151D01*
X207203113Y-156210000D01*
X207093880Y-155660849D01*
X206782811Y-155195302D01*
X206400725Y-154940000D01*
X206782811Y-154684698D01*
X207093880Y-154219151D01*
X207203113Y-153670000D01*
X207093880Y-153120849D01*
X206782811Y-152655302D01*
X206317264Y-152344233D01*
X205768113Y-152235000D01*
X205711887Y-152235000D01*
X205162736Y-152344233D01*
X204697189Y-152655302D01*
X204386120Y-153120849D01*
X204277010Y-153669379D01*
X202499630Y-151892000D01*
X206694370Y-151892000D01*
X211551185Y-156748815D01*
X211798395Y-156913996D01*
X211962560Y-156946651D01*
X211962560Y-156960000D01*
X212006838Y-157195317D01*
X212145910Y-157411441D01*
X212358110Y-157556431D01*
X212610000Y-157607440D01*
X214110000Y-157607440D01*
X214345317Y-157563162D01*
X214561441Y-157424090D01*
X214706431Y-157211890D01*
X214712581Y-157181517D01*
X215108088Y-157181517D01*
X215176077Y-157422460D01*
X215695171Y-157607201D01*
X216245448Y-157579230D01*
X216623923Y-157422460D01*
X216691912Y-157181517D01*
X215900000Y-156389605D01*
X215108088Y-157181517D01*
X214712581Y-157181517D01*
X214757440Y-156960000D01*
X214757440Y-156953647D01*
X214928483Y-157001912D01*
X215720395Y-156210000D01*
X216079605Y-156210000D01*
X216871517Y-157001912D01*
X217112460Y-156933923D01*
X217297201Y-156414829D01*
X217269230Y-155864552D01*
X217112460Y-155486077D01*
X216871517Y-155418088D01*
X216079605Y-156210000D01*
X215720395Y-156210000D01*
X214928483Y-155418088D01*
X214757440Y-155466353D01*
X214757440Y-155460000D01*
X214715759Y-155238483D01*
X215108088Y-155238483D01*
X215900000Y-156030395D01*
X216691912Y-155238483D01*
X216623923Y-154997540D01*
X216104829Y-154812799D01*
X215554552Y-154840770D01*
X215176077Y-154997540D01*
X215108088Y-155238483D01*
X214715759Y-155238483D01*
X214713162Y-155224683D01*
X214574090Y-155008559D01*
X214361890Y-154863569D01*
X214110000Y-154812560D01*
X212610000Y-154812560D01*
X212374683Y-154856838D01*
X212158559Y-154995910D01*
X212075338Y-155117708D01*
X207548815Y-150591185D01*
X207508124Y-150563996D01*
X207301605Y-150426004D01*
X207010000Y-150368000D01*
X191450631Y-150368000D01*
X190627000Y-149544370D01*
X190627000Y-143859039D01*
X196728096Y-143859039D01*
X196888959Y-144247423D01*
X197264866Y-144662389D01*
X197770959Y-144901914D01*
X197993000Y-144780629D01*
X197993000Y-143637000D01*
X198247000Y-143637000D01*
X198247000Y-144780629D01*
X198469041Y-144901914D01*
X198975134Y-144662389D01*
X199351041Y-144247423D01*
X199511904Y-143859039D01*
X199389915Y-143637000D01*
X198247000Y-143637000D01*
X197993000Y-143637000D01*
X196850085Y-143637000D01*
X196728096Y-143859039D01*
X190627000Y-143859039D01*
X190627000Y-138430000D01*
X196656887Y-138430000D01*
X196766120Y-138979151D01*
X197077189Y-139444698D01*
X197459275Y-139700000D01*
X197077189Y-139955302D01*
X196766120Y-140420849D01*
X196656887Y-140970000D01*
X196766120Y-141519151D01*
X197077189Y-141984698D01*
X197481703Y-142254986D01*
X197264866Y-142357611D01*
X196888959Y-142772577D01*
X196728096Y-143160961D01*
X196850085Y-143383000D01*
X197993000Y-143383000D01*
X197993000Y-143363000D01*
X198247000Y-143363000D01*
X198247000Y-143383000D01*
X199389915Y-143383000D01*
X199511904Y-143160961D01*
X199351041Y-142772577D01*
X198975134Y-142357611D01*
X198758297Y-142254986D01*
X199162811Y-141984698D01*
X199473880Y-141519151D01*
X199583113Y-140970000D01*
X199473880Y-140420849D01*
X199162811Y-139955302D01*
X198780725Y-139700000D01*
X198880621Y-139633251D01*
X199580501Y-140333131D01*
X199580313Y-140548784D01*
X199744311Y-140945689D01*
X200047714Y-141249622D01*
X200444332Y-141414313D01*
X200873784Y-141414687D01*
X201270689Y-141250689D01*
X201574622Y-140947286D01*
X201739313Y-140550668D01*
X201739687Y-140121216D01*
X201575689Y-139724311D01*
X201272286Y-139420378D01*
X200875668Y-139255687D01*
X200658128Y-139255498D01*
X199521157Y-138118527D01*
X199473880Y-137880849D01*
X199162811Y-137415302D01*
X199018535Y-137318899D01*
X199155317Y-137293162D01*
X199371441Y-137154090D01*
X199516431Y-136941890D01*
X199567440Y-136690000D01*
X199567440Y-135520190D01*
X201610630Y-133477000D01*
X211139370Y-133477000D01*
X212821185Y-135158815D01*
X213068395Y-135323996D01*
X213360000Y-135382000D01*
X215622560Y-135382000D01*
X215622560Y-135520000D01*
X215666838Y-135755317D01*
X215805910Y-135971441D01*
X216018110Y-136116431D01*
X216270000Y-136167440D01*
X218070000Y-136167440D01*
X218305317Y-136123162D01*
X218521441Y-135984090D01*
X218666431Y-135771890D01*
X218669719Y-135755656D01*
X219092509Y-136038155D01*
X219679928Y-136155000D01*
X219740072Y-136155000D01*
X220327491Y-136038155D01*
X220825481Y-135705409D01*
X220984501Y-135467418D01*
X221342424Y-135857966D01*
X221885258Y-136111046D01*
X222123000Y-135990997D01*
X222123000Y-134747000D01*
X222377000Y-134747000D01*
X222377000Y-135990997D01*
X222614742Y-136111046D01*
X223157576Y-135857966D01*
X223562240Y-135416417D01*
X223741036Y-134984740D01*
X223620378Y-134747000D01*
X222377000Y-134747000D01*
X222123000Y-134747000D01*
X222103000Y-134747000D01*
X222103000Y-134493000D01*
X222123000Y-134493000D01*
X222123000Y-133249003D01*
X222377000Y-133249003D01*
X222377000Y-134493000D01*
X223620378Y-134493000D01*
X223741036Y-134255260D01*
X223562240Y-133823583D01*
X223157576Y-133382034D01*
X222614742Y-133128954D01*
X222377000Y-133249003D01*
X222123000Y-133249003D01*
X221885258Y-133128954D01*
X221342424Y-133382034D01*
X220984501Y-133772582D01*
X220825481Y-133534591D01*
X220327491Y-133201845D01*
X219740072Y-133085000D01*
X219679928Y-133085000D01*
X219092509Y-133201845D01*
X218671974Y-133482837D01*
X218534090Y-133268559D01*
X218321890Y-133123569D01*
X218070000Y-133072560D01*
X216270000Y-133072560D01*
X216034683Y-133116838D01*
X215818559Y-133255910D01*
X215673569Y-133468110D01*
X215622560Y-133720000D01*
X215622560Y-133858000D01*
X213675630Y-133858000D01*
X212757053Y-132939423D01*
X213004622Y-132692286D01*
X213169313Y-132295668D01*
X213169687Y-131866216D01*
X213005689Y-131469311D01*
X212852000Y-131315354D01*
X212852000Y-130810000D01*
X212793996Y-130518395D01*
X212628815Y-130271185D01*
X208089499Y-125731869D01*
X208089687Y-125516216D01*
X207925689Y-125119311D01*
X207622286Y-124815378D01*
X207225668Y-124650687D01*
X207165193Y-124650634D01*
X207203113Y-124460000D01*
X207093880Y-123910849D01*
X206782811Y-123445302D01*
X206400725Y-123190000D01*
X206782811Y-122934698D01*
X207093880Y-122469151D01*
X207200488Y-121933198D01*
X207200313Y-122133784D01*
X207364311Y-122530689D01*
X207667714Y-122834622D01*
X208064332Y-122999313D01*
X208281872Y-122999502D01*
X212821185Y-127538815D01*
X213068395Y-127703996D01*
X213360000Y-127762000D01*
X215622560Y-127762000D01*
X215622560Y-127900000D01*
X215666838Y-128135317D01*
X215805910Y-128351441D01*
X216018110Y-128496431D01*
X216270000Y-128547440D01*
X217639810Y-128547440D01*
X219806185Y-130713815D01*
X220053395Y-130878996D01*
X220345000Y-130937000D01*
X224474370Y-130937000D01*
X224663000Y-131125631D01*
X224663000Y-152719370D01*
X223775647Y-153606723D01*
X223255914Y-153606269D01*
X222765620Y-153808854D01*
X222390173Y-154183647D01*
X222186732Y-154673587D01*
X222186269Y-155204086D01*
X222388854Y-155694380D01*
X222763647Y-156069827D01*
X223253587Y-156273268D01*
X223784086Y-156273731D01*
X224274380Y-156071146D01*
X224649827Y-155696353D01*
X224790094Y-155358554D01*
X224928854Y-155694380D01*
X225303647Y-156069827D01*
X225793587Y-156273268D01*
X226324086Y-156273731D01*
X226814380Y-156071146D01*
X227189827Y-155696353D01*
X227203000Y-155664629D01*
X227203000Y-160564309D01*
X227191146Y-160535620D01*
X226816353Y-160160173D01*
X226519566Y-160036936D01*
X221742000Y-155259370D01*
X221742000Y-153670000D01*
X221704123Y-153479578D01*
X221828784Y-153479687D01*
X222225689Y-153315689D01*
X222529622Y-153012286D01*
X222694313Y-152615668D01*
X222694443Y-152465979D01*
X222907714Y-152679622D01*
X223304332Y-152844313D01*
X223733784Y-152844687D01*
X224130689Y-152680689D01*
X224434622Y-152377286D01*
X224599313Y-151980668D01*
X224599687Y-151551216D01*
X224435689Y-151154311D01*
X224282000Y-151000354D01*
X224282000Y-146179642D01*
X224434622Y-146027286D01*
X224599313Y-145630668D01*
X224599687Y-145201216D01*
X224435689Y-144804311D01*
X224132286Y-144500378D01*
X223735668Y-144335687D01*
X223306216Y-144335313D01*
X222909311Y-144499311D01*
X222605378Y-144802714D01*
X222440687Y-145199332D01*
X222440313Y-145628784D01*
X222604311Y-146025689D01*
X222758000Y-146179646D01*
X222758000Y-151000358D01*
X222605378Y-151152714D01*
X222440687Y-151549332D01*
X222440557Y-151699021D01*
X222377000Y-151635354D01*
X222377000Y-147449642D01*
X222529622Y-147297286D01*
X222694313Y-146900668D01*
X222694687Y-146471216D01*
X222530689Y-146074311D01*
X222227286Y-145770378D01*
X221830668Y-145605687D01*
X221401216Y-145605313D01*
X221004311Y-145769311D01*
X220700378Y-146072714D01*
X220618561Y-146269750D01*
X220495564Y-146146539D01*
X220263130Y-146050024D01*
X220493515Y-145954831D01*
X220883461Y-145565564D01*
X221094759Y-145056702D01*
X221095240Y-144505715D01*
X220884831Y-143996485D01*
X220495564Y-143606539D01*
X220263130Y-143510024D01*
X220493515Y-143414831D01*
X220883461Y-143025564D01*
X221094759Y-142516702D01*
X221095240Y-141965715D01*
X220884831Y-141456485D01*
X220495564Y-141066539D01*
X219986702Y-140855241D01*
X219435715Y-140854760D01*
X218926485Y-141065169D01*
X218536539Y-141454436D01*
X218325241Y-141963298D01*
X218324760Y-142514285D01*
X218535169Y-143023515D01*
X218924436Y-143413461D01*
X219156870Y-143509976D01*
X218926485Y-143605169D01*
X218536539Y-143994436D01*
X218325241Y-144503298D01*
X218324760Y-145054285D01*
X218535169Y-145563515D01*
X218924436Y-145953461D01*
X219156870Y-146049976D01*
X218926485Y-146145169D01*
X218536539Y-146534436D01*
X218325241Y-147043298D01*
X218324760Y-147594285D01*
X218535169Y-148103515D01*
X218904091Y-148473080D01*
X218724683Y-148506838D01*
X218508559Y-148645910D01*
X218363569Y-148858110D01*
X218312560Y-149110000D01*
X218312560Y-149924929D01*
X208818815Y-140431185D01*
X208674864Y-140335000D01*
X208571605Y-140266004D01*
X208280000Y-140208000D01*
X206951659Y-140208000D01*
X206782811Y-139955302D01*
X206400725Y-139700000D01*
X206782811Y-139444698D01*
X206951659Y-139192000D01*
X216219370Y-139192000D01*
X217266184Y-140238815D01*
X217513395Y-140403996D01*
X217805000Y-140462000D01*
X220535389Y-140462000D01*
X220535313Y-140548784D01*
X220699311Y-140945689D01*
X221002714Y-141249622D01*
X221399332Y-141414313D01*
X221828784Y-141414687D01*
X222225689Y-141250689D01*
X222529622Y-140947286D01*
X222694313Y-140550668D01*
X222694687Y-140121216D01*
X222530689Y-139724311D01*
X222316311Y-139509559D01*
X222463784Y-139509687D01*
X222860689Y-139345689D01*
X223164622Y-139042286D01*
X223329313Y-138645668D01*
X223329687Y-138216216D01*
X223165689Y-137819311D01*
X222862286Y-137515378D01*
X222465668Y-137350687D01*
X222036216Y-137350313D01*
X221639311Y-137514311D01*
X221485354Y-137668000D01*
X219204642Y-137668000D01*
X219052286Y-137515378D01*
X218655668Y-137350687D01*
X218226216Y-137350313D01*
X217829311Y-137514311D01*
X217525378Y-137817714D01*
X217371330Y-138188700D01*
X217073815Y-137891185D01*
X216929864Y-137795000D01*
X216826605Y-137726004D01*
X216535000Y-137668000D01*
X206951659Y-137668000D01*
X206782811Y-137415302D01*
X206400725Y-137160000D01*
X206782811Y-136904698D01*
X207093880Y-136439151D01*
X207203113Y-135890000D01*
X207093880Y-135340849D01*
X206782811Y-134875302D01*
X206317264Y-134564233D01*
X205768113Y-134455000D01*
X205711887Y-134455000D01*
X205162736Y-134564233D01*
X204697189Y-134875302D01*
X204386120Y-135340849D01*
X204276887Y-135890000D01*
X204386120Y-136439151D01*
X204697189Y-136904698D01*
X205079275Y-137160000D01*
X204697189Y-137415302D01*
X204386120Y-137880849D01*
X204276887Y-138430000D01*
X204386120Y-138979151D01*
X204697189Y-139444698D01*
X205079275Y-139700000D01*
X204697189Y-139955302D01*
X204386120Y-140420849D01*
X204276887Y-140970000D01*
X204386120Y-141519151D01*
X204697189Y-141984698D01*
X205079275Y-142240000D01*
X204697189Y-142495302D01*
X204386120Y-142960849D01*
X204276887Y-143510000D01*
X204386120Y-144059151D01*
X204697189Y-144524698D01*
X205162736Y-144835767D01*
X205711887Y-144945000D01*
X205768113Y-144945000D01*
X206317264Y-144835767D01*
X206782811Y-144524698D01*
X207093880Y-144059151D01*
X207203113Y-143510000D01*
X207093880Y-142960849D01*
X206782811Y-142495302D01*
X206400725Y-142240000D01*
X206782811Y-141984698D01*
X206951659Y-141732000D01*
X207964370Y-141732000D01*
X220218000Y-153985631D01*
X220218000Y-155575000D01*
X220276004Y-155866605D01*
X220438502Y-156109800D01*
X220441185Y-156113815D01*
X224909882Y-160582512D01*
X224789906Y-160871446D01*
X224651146Y-160535620D01*
X224276353Y-160160173D01*
X223786413Y-159956732D01*
X223255914Y-159956269D01*
X222765620Y-160158854D01*
X222390173Y-160533647D01*
X222186732Y-161023587D01*
X222186269Y-161554086D01*
X222388854Y-162044380D01*
X222763647Y-162419827D01*
X223253587Y-162623268D01*
X223784086Y-162623731D01*
X224274380Y-162421146D01*
X224649827Y-162046353D01*
X224790094Y-161708554D01*
X224928854Y-162044380D01*
X225303647Y-162419827D01*
X225793587Y-162623268D01*
X226324086Y-162623731D01*
X226814380Y-162421146D01*
X227189827Y-162046353D01*
X227203000Y-162014629D01*
X227203000Y-166914309D01*
X227191146Y-166885620D01*
X226816353Y-166510173D01*
X226326413Y-166306732D01*
X225795914Y-166306269D01*
X225305620Y-166508854D01*
X224930173Y-166883647D01*
X224789906Y-167221446D01*
X224651146Y-166885620D01*
X224276353Y-166510173D01*
X223786413Y-166306732D01*
X223255914Y-166306269D01*
X222765620Y-166508854D01*
X222390173Y-166883647D01*
X222186732Y-167373587D01*
X222186269Y-167904086D01*
X222388854Y-168394380D01*
X222763647Y-168769827D01*
X223253587Y-168973268D01*
X223784086Y-168973731D01*
X224274380Y-168771146D01*
X224649827Y-168396353D01*
X224790094Y-168058554D01*
X224928854Y-168394380D01*
X225303647Y-168769827D01*
X225793587Y-168973268D01*
X226324086Y-168973731D01*
X226814380Y-168771146D01*
X227189827Y-168396353D01*
X227203000Y-168364629D01*
X227203000Y-168594370D01*
X225744370Y-170053000D01*
X223014642Y-170053000D01*
X222862286Y-169900378D01*
X222465668Y-169735687D01*
X222036216Y-169735313D01*
X221639311Y-169899311D01*
X221335378Y-170202714D01*
X221170687Y-170599332D01*
X221170313Y-171028784D01*
X221334311Y-171425689D01*
X221637714Y-171729622D01*
X222034332Y-171894313D01*
X222463784Y-171894687D01*
X222860689Y-171730689D01*
X223014646Y-171577000D01*
X226060000Y-171577000D01*
X226351605Y-171518996D01*
X226598815Y-171353815D01*
X228503815Y-169448815D01*
X228634390Y-169253396D01*
X228668996Y-169201605D01*
X228727000Y-168910000D01*
X228727000Y-168365691D01*
X228738854Y-168394380D01*
X229113647Y-168769827D01*
X229603587Y-168973268D01*
X230134086Y-168973731D01*
X230624380Y-168771146D01*
X230821681Y-168574188D01*
X231655417Y-168574188D01*
X231717071Y-168809800D01*
X232217480Y-168985927D01*
X232747199Y-168957148D01*
X233102929Y-168809800D01*
X233164583Y-168574188D01*
X232410000Y-167819605D01*
X231655417Y-168574188D01*
X230821681Y-168574188D01*
X230999827Y-168396353D01*
X231133314Y-168074882D01*
X231240200Y-168332929D01*
X231475812Y-168394583D01*
X232230395Y-167640000D01*
X232589605Y-167640000D01*
X233344188Y-168394583D01*
X233579800Y-168332929D01*
X233755927Y-167832520D01*
X233727148Y-167302801D01*
X233579800Y-166947071D01*
X233344188Y-166885417D01*
X232589605Y-167640000D01*
X232230395Y-167640000D01*
X231475812Y-166885417D01*
X231240200Y-166947071D01*
X231141917Y-167226312D01*
X231001146Y-166885620D01*
X230821652Y-166705812D01*
X231655417Y-166705812D01*
X232410000Y-167460395D01*
X233164583Y-166705812D01*
X233102929Y-166470200D01*
X232602520Y-166294073D01*
X232072801Y-166322852D01*
X231717071Y-166470200D01*
X231655417Y-166705812D01*
X230821652Y-166705812D01*
X230626353Y-166510173D01*
X230136413Y-166306732D01*
X229605914Y-166306269D01*
X229115620Y-166508854D01*
X228740173Y-166883647D01*
X228727000Y-166915371D01*
X228727000Y-162015691D01*
X228738854Y-162044380D01*
X229113647Y-162419827D01*
X229603587Y-162623268D01*
X230134086Y-162623731D01*
X230624380Y-162421146D01*
X230821681Y-162224188D01*
X231655417Y-162224188D01*
X231717071Y-162459800D01*
X232217480Y-162635927D01*
X232747199Y-162607148D01*
X233102929Y-162459800D01*
X233164583Y-162224188D01*
X232410000Y-161469605D01*
X231655417Y-162224188D01*
X230821681Y-162224188D01*
X230999827Y-162046353D01*
X231133314Y-161724882D01*
X231240200Y-161982929D01*
X231475812Y-162044583D01*
X232230395Y-161290000D01*
X232589605Y-161290000D01*
X233344188Y-162044583D01*
X233579800Y-161982929D01*
X233755927Y-161482520D01*
X233727148Y-160952801D01*
X233579800Y-160597071D01*
X233344188Y-160535417D01*
X232589605Y-161290000D01*
X232230395Y-161290000D01*
X231475812Y-160535417D01*
X231240200Y-160597071D01*
X231141917Y-160876312D01*
X231001146Y-160535620D01*
X230821652Y-160355812D01*
X231655417Y-160355812D01*
X232410000Y-161110395D01*
X233164583Y-160355812D01*
X233102929Y-160120200D01*
X232602520Y-159944073D01*
X232072801Y-159972852D01*
X231717071Y-160120200D01*
X231655417Y-160355812D01*
X230821652Y-160355812D01*
X230626353Y-160160173D01*
X230136413Y-159956732D01*
X229605914Y-159956269D01*
X229115620Y-160158854D01*
X228740173Y-160533647D01*
X228727000Y-160565371D01*
X228727000Y-155665691D01*
X228738854Y-155694380D01*
X229113647Y-156069827D01*
X229603587Y-156273268D01*
X230134086Y-156273731D01*
X230624380Y-156071146D01*
X230821681Y-155874188D01*
X231655417Y-155874188D01*
X231717071Y-156109800D01*
X232217480Y-156285927D01*
X232747199Y-156257148D01*
X233102929Y-156109800D01*
X233164583Y-155874188D01*
X232410000Y-155119605D01*
X231655417Y-155874188D01*
X230821681Y-155874188D01*
X230999827Y-155696353D01*
X231133314Y-155374882D01*
X231240200Y-155632929D01*
X231475812Y-155694583D01*
X232230395Y-154940000D01*
X232589605Y-154940000D01*
X233344188Y-155694583D01*
X233579800Y-155632929D01*
X233755927Y-155132520D01*
X233727148Y-154602801D01*
X233579800Y-154247071D01*
X233344188Y-154185417D01*
X232589605Y-154940000D01*
X232230395Y-154940000D01*
X231475812Y-154185417D01*
X231240200Y-154247071D01*
X231141917Y-154526312D01*
X231001146Y-154185620D01*
X230821652Y-154005812D01*
X231655417Y-154005812D01*
X232410000Y-154760395D01*
X233164583Y-154005812D01*
X233102929Y-153770200D01*
X232602520Y-153594073D01*
X232072801Y-153622852D01*
X231717071Y-153770200D01*
X231655417Y-154005812D01*
X230821652Y-154005812D01*
X230626353Y-153810173D01*
X230136413Y-153606732D01*
X229605914Y-153606269D01*
X229115620Y-153808854D01*
X228740173Y-154183647D01*
X228727000Y-154215371D01*
X228727000Y-149110000D01*
X231012560Y-149110000D01*
X231012560Y-150610000D01*
X231056838Y-150845317D01*
X231195910Y-151061441D01*
X231408110Y-151206431D01*
X231660000Y-151257440D01*
X233160000Y-151257440D01*
X233395317Y-151213162D01*
X233611441Y-151074090D01*
X233756431Y-150861890D01*
X233807440Y-150610000D01*
X233807440Y-149110000D01*
X233763162Y-148874683D01*
X233624090Y-148658559D01*
X233411890Y-148513569D01*
X233214738Y-148473645D01*
X233583461Y-148105564D01*
X233794759Y-147596702D01*
X233795240Y-147045715D01*
X233584831Y-146536485D01*
X233195564Y-146146539D01*
X232963130Y-146050024D01*
X233193515Y-145954831D01*
X233583461Y-145565564D01*
X233794759Y-145056702D01*
X233795240Y-144505715D01*
X233584831Y-143996485D01*
X233195564Y-143606539D01*
X232963130Y-143510024D01*
X233193515Y-143414831D01*
X233583461Y-143025564D01*
X233794759Y-142516702D01*
X233795240Y-141965715D01*
X233584831Y-141456485D01*
X233195564Y-141066539D01*
X232686702Y-140855241D01*
X232135715Y-140854760D01*
X231626485Y-141065169D01*
X231236539Y-141454436D01*
X231025241Y-141963298D01*
X231024760Y-142514285D01*
X231235169Y-143023515D01*
X231624436Y-143413461D01*
X231856870Y-143509976D01*
X231626485Y-143605169D01*
X231236539Y-143994436D01*
X231025241Y-144503298D01*
X231024760Y-145054285D01*
X231235169Y-145563515D01*
X231624436Y-145953461D01*
X231856870Y-146049976D01*
X231626485Y-146145169D01*
X231236539Y-146534436D01*
X231025241Y-147043298D01*
X231024760Y-147594285D01*
X231235169Y-148103515D01*
X231604091Y-148473080D01*
X231424683Y-148506838D01*
X231208559Y-148645910D01*
X231063569Y-148858110D01*
X231012560Y-149110000D01*
X228727000Y-149110000D01*
X228727000Y-138643784D01*
X230060313Y-138643784D01*
X230224311Y-139040689D01*
X230527714Y-139344622D01*
X230924332Y-139509313D01*
X231353784Y-139509687D01*
X231750689Y-139345689D01*
X231904646Y-139192000D01*
X232915358Y-139192000D01*
X233067714Y-139344622D01*
X233464332Y-139509313D01*
X233893784Y-139509687D01*
X234290689Y-139345689D01*
X234594622Y-139042286D01*
X234759313Y-138645668D01*
X234759687Y-138216216D01*
X234595689Y-137819311D01*
X234292286Y-137515378D01*
X233951292Y-137373784D01*
X235140313Y-137373784D01*
X235304311Y-137770689D01*
X235458000Y-137924646D01*
X235458000Y-138935358D01*
X235305378Y-139087714D01*
X235140687Y-139484332D01*
X235140313Y-139913784D01*
X235304311Y-140310689D01*
X235607714Y-140614622D01*
X236004332Y-140779313D01*
X236433784Y-140779687D01*
X236830689Y-140615689D01*
X237134622Y-140312286D01*
X237299313Y-139915668D01*
X237299687Y-139486216D01*
X237135689Y-139089311D01*
X236982000Y-138935354D01*
X236982000Y-137924642D01*
X237134622Y-137772286D01*
X237299313Y-137375668D01*
X237299687Y-136946216D01*
X237135689Y-136549311D01*
X236832286Y-136245378D01*
X236435668Y-136080687D01*
X236006216Y-136080313D01*
X235609311Y-136244311D01*
X235305378Y-136547714D01*
X235140687Y-136944332D01*
X235140313Y-137373784D01*
X233951292Y-137373784D01*
X233895668Y-137350687D01*
X233466216Y-137350313D01*
X233069311Y-137514311D01*
X232915354Y-137668000D01*
X231904642Y-137668000D01*
X231752286Y-137515378D01*
X231355668Y-137350687D01*
X230926216Y-137350313D01*
X230529311Y-137514311D01*
X230225378Y-137817714D01*
X230060687Y-138214332D01*
X230060313Y-138643784D01*
X228727000Y-138643784D01*
X228727000Y-136118231D01*
X228970000Y-136167440D01*
X230770000Y-136167440D01*
X231005317Y-136123162D01*
X231221441Y-135984090D01*
X231366431Y-135771890D01*
X231369719Y-135755656D01*
X231792509Y-136038155D01*
X232379928Y-136155000D01*
X232440072Y-136155000D01*
X233027491Y-136038155D01*
X233525481Y-135705409D01*
X233684501Y-135467418D01*
X234042424Y-135857966D01*
X234585258Y-136111046D01*
X234823000Y-135990997D01*
X234823000Y-134747000D01*
X235077000Y-134747000D01*
X235077000Y-135990997D01*
X235314742Y-136111046D01*
X235857576Y-135857966D01*
X236262240Y-135416417D01*
X236441036Y-134984740D01*
X236320378Y-134747000D01*
X235077000Y-134747000D01*
X234823000Y-134747000D01*
X234803000Y-134747000D01*
X234803000Y-134493000D01*
X234823000Y-134493000D01*
X234823000Y-133249003D01*
X235077000Y-133249003D01*
X235077000Y-134493000D01*
X236320378Y-134493000D01*
X236441036Y-134255260D01*
X236262240Y-133823583D01*
X235857576Y-133382034D01*
X235314742Y-133128954D01*
X235077000Y-133249003D01*
X234823000Y-133249003D01*
X234585258Y-133128954D01*
X234042424Y-133382034D01*
X233684501Y-133772582D01*
X233525481Y-133534591D01*
X233027491Y-133201845D01*
X232440072Y-133085000D01*
X232379928Y-133085000D01*
X231792509Y-133201845D01*
X231371974Y-133482837D01*
X231234090Y-133268559D01*
X231021890Y-133123569D01*
X230770000Y-133072560D01*
X228970000Y-133072560D01*
X228734683Y-133116838D01*
X228727000Y-133121782D01*
X228727000Y-129220630D01*
X229400190Y-128547440D01*
X230770000Y-128547440D01*
X231005317Y-128503162D01*
X231221441Y-128364090D01*
X231366431Y-128151890D01*
X231369719Y-128135656D01*
X231792509Y-128418155D01*
X232379928Y-128535000D01*
X232440072Y-128535000D01*
X233027491Y-128418155D01*
X233525481Y-128085409D01*
X233684501Y-127847418D01*
X234042424Y-128237966D01*
X234585258Y-128491046D01*
X234823000Y-128370997D01*
X234823000Y-127127000D01*
X235077000Y-127127000D01*
X235077000Y-128370997D01*
X235314742Y-128491046D01*
X235857576Y-128237966D01*
X236262240Y-127796417D01*
X236441036Y-127364740D01*
X236320378Y-127127000D01*
X235077000Y-127127000D01*
X234823000Y-127127000D01*
X234803000Y-127127000D01*
X234803000Y-126873000D01*
X234823000Y-126873000D01*
X234823000Y-125629003D01*
X235077000Y-125629003D01*
X235077000Y-126873000D01*
X236320378Y-126873000D01*
X236441036Y-126635260D01*
X236262240Y-126203583D01*
X235857576Y-125762034D01*
X235314742Y-125508954D01*
X235077000Y-125629003D01*
X234823000Y-125629003D01*
X234585258Y-125508954D01*
X234042424Y-125762034D01*
X233684501Y-126152582D01*
X233525481Y-125914591D01*
X233027491Y-125581845D01*
X232440072Y-125465000D01*
X232379928Y-125465000D01*
X231792509Y-125581845D01*
X231371974Y-125862837D01*
X231234090Y-125648559D01*
X231021890Y-125503569D01*
X230770000Y-125452560D01*
X228970000Y-125452560D01*
X228734683Y-125496838D01*
X228518559Y-125635910D01*
X228373569Y-125848110D01*
X228322560Y-126100000D01*
X228322560Y-127469810D01*
X227426185Y-128366185D01*
X227261004Y-128613395D01*
X227203000Y-128905000D01*
X227203000Y-154214309D01*
X227191146Y-154185620D01*
X226816353Y-153810173D01*
X226326413Y-153606732D01*
X225931243Y-153606387D01*
X225963815Y-153573815D01*
X225984405Y-153543000D01*
X226128996Y-153326605D01*
X226187000Y-153035000D01*
X226187000Y-130810000D01*
X226128996Y-130518395D01*
X226062834Y-130419377D01*
X225963816Y-130271185D01*
X225328815Y-129636185D01*
X225296333Y-129614481D01*
X225081605Y-129471004D01*
X224790000Y-129413000D01*
X220660630Y-129413000D01*
X219775569Y-128527939D01*
X220327491Y-128418155D01*
X220825481Y-128085409D01*
X220984501Y-127847418D01*
X221342424Y-128237966D01*
X221885258Y-128491046D01*
X222123000Y-128370997D01*
X222123000Y-127127000D01*
X222377000Y-127127000D01*
X222377000Y-128370997D01*
X222614742Y-128491046D01*
X223157576Y-128237966D01*
X223562240Y-127796417D01*
X223741036Y-127364740D01*
X223620378Y-127127000D01*
X222377000Y-127127000D01*
X222123000Y-127127000D01*
X222103000Y-127127000D01*
X222103000Y-126873000D01*
X222123000Y-126873000D01*
X222123000Y-125629003D01*
X222377000Y-125629003D01*
X222377000Y-126873000D01*
X223620378Y-126873000D01*
X223741036Y-126635260D01*
X223562240Y-126203583D01*
X223157576Y-125762034D01*
X222614742Y-125508954D01*
X222377000Y-125629003D01*
X222123000Y-125629003D01*
X221885258Y-125508954D01*
X221342424Y-125762034D01*
X220984501Y-126152582D01*
X220825481Y-125914591D01*
X220327491Y-125581845D01*
X219740072Y-125465000D01*
X219679928Y-125465000D01*
X219092509Y-125581845D01*
X218671974Y-125862837D01*
X218534090Y-125648559D01*
X218321890Y-125503569D01*
X218070000Y-125452560D01*
X216270000Y-125452560D01*
X216034683Y-125496838D01*
X215818559Y-125635910D01*
X215673569Y-125848110D01*
X215622560Y-126100000D01*
X215622560Y-126238000D01*
X213675630Y-126238000D01*
X209359499Y-121921869D01*
X209359687Y-121706216D01*
X209195689Y-121309311D01*
X208892286Y-121005378D01*
X208495668Y-120840687D01*
X208066216Y-120840313D01*
X207669311Y-121004311D01*
X207365378Y-121307714D01*
X207200687Y-121704332D01*
X207200511Y-121906917D01*
X207093880Y-121370849D01*
X206782811Y-120905302D01*
X206400725Y-120650000D01*
X206782811Y-120394698D01*
X207093880Y-119929151D01*
X207203113Y-119380000D01*
X207093880Y-118830849D01*
X206782811Y-118365302D01*
X206317264Y-118054233D01*
X205768113Y-117945000D01*
X205711887Y-117945000D01*
X205162736Y-118054233D01*
X204697189Y-118365302D01*
X204386120Y-118830849D01*
X204276887Y-119380000D01*
X204386120Y-119929151D01*
X204697189Y-120394698D01*
X205079275Y-120650000D01*
X204697189Y-120905302D01*
X204386120Y-121370849D01*
X204276887Y-121920000D01*
X204386120Y-122469151D01*
X204697189Y-122934698D01*
X205079275Y-123190000D01*
X204697189Y-123445302D01*
X204386120Y-123910849D01*
X204276887Y-124460000D01*
X204386120Y-125009151D01*
X204697189Y-125474698D01*
X205079275Y-125730000D01*
X204697189Y-125985302D01*
X204528341Y-126238000D01*
X201295000Y-126238000D01*
X201003395Y-126296004D01*
X200756184Y-126461185D01*
X198756869Y-128460501D01*
X198541216Y-128460313D01*
X198144311Y-128624311D01*
X197840378Y-128927714D01*
X197675687Y-129324332D01*
X197675313Y-129753784D01*
X197839311Y-130150689D01*
X198142714Y-130454622D01*
X198539332Y-130619313D01*
X198968784Y-130619687D01*
X199365689Y-130455689D01*
X199669622Y-130152286D01*
X199834313Y-129755668D01*
X199834502Y-129538128D01*
X201610631Y-127762000D01*
X204528341Y-127762000D01*
X204697189Y-128014698D01*
X205162736Y-128325767D01*
X205711887Y-128435000D01*
X205768113Y-128435000D01*
X206317264Y-128325767D01*
X206782811Y-128014698D01*
X207093880Y-127549151D01*
X207202990Y-127000620D01*
X211328000Y-131125630D01*
X211328000Y-131315358D01*
X211175378Y-131467714D01*
X211010687Y-131864332D01*
X211010610Y-131953000D01*
X201295000Y-131953000D01*
X201030970Y-132005519D01*
X201003395Y-132011004D01*
X200756185Y-132176185D01*
X198489810Y-134442560D01*
X197320000Y-134442560D01*
X197084683Y-134486838D01*
X196868559Y-134625910D01*
X196723569Y-134838110D01*
X196672560Y-135090000D01*
X196672560Y-136690000D01*
X196716838Y-136925317D01*
X196855910Y-137141441D01*
X197068110Y-137286431D01*
X197223089Y-137317815D01*
X197077189Y-137415302D01*
X196766120Y-137880849D01*
X196656887Y-138430000D01*
X190627000Y-138430000D01*
X190627000Y-127349039D01*
X196728096Y-127349039D01*
X196888959Y-127737423D01*
X197264866Y-128152389D01*
X197770959Y-128391914D01*
X197993000Y-128270629D01*
X197993000Y-127127000D01*
X198247000Y-127127000D01*
X198247000Y-128270629D01*
X198469041Y-128391914D01*
X198975134Y-128152389D01*
X199351041Y-127737423D01*
X199511904Y-127349039D01*
X199389915Y-127127000D01*
X198247000Y-127127000D01*
X197993000Y-127127000D01*
X196850085Y-127127000D01*
X196728096Y-127349039D01*
X190627000Y-127349039D01*
X190627000Y-127315630D01*
X193038131Y-124904499D01*
X193253784Y-124904687D01*
X193650689Y-124740689D01*
X193954622Y-124437286D01*
X194119313Y-124040668D01*
X194119687Y-123611216D01*
X193955689Y-123214311D01*
X193652286Y-122910378D01*
X193281300Y-122756331D01*
X193355631Y-122682000D01*
X196908341Y-122682000D01*
X197077189Y-122934698D01*
X197459275Y-123190000D01*
X197077189Y-123445302D01*
X196766120Y-123910849D01*
X196656887Y-124460000D01*
X196766120Y-125009151D01*
X197077189Y-125474698D01*
X197481703Y-125744986D01*
X197264866Y-125847611D01*
X196888959Y-126262577D01*
X196728096Y-126650961D01*
X196850085Y-126873000D01*
X197993000Y-126873000D01*
X197993000Y-126853000D01*
X198247000Y-126853000D01*
X198247000Y-126873000D01*
X199389915Y-126873000D01*
X199511904Y-126650961D01*
X199351041Y-126262577D01*
X198975134Y-125847611D01*
X198758297Y-125744986D01*
X199162811Y-125474698D01*
X199473880Y-125009151D01*
X199583113Y-124460000D01*
X199473880Y-123910849D01*
X199162811Y-123445302D01*
X198780725Y-123190000D01*
X199162811Y-122934698D01*
X199473880Y-122469151D01*
X199583113Y-121920000D01*
X199473880Y-121370849D01*
X199162811Y-120905302D01*
X199018535Y-120808899D01*
X199155317Y-120783162D01*
X199371441Y-120644090D01*
X199516431Y-120431890D01*
X199567440Y-120180000D01*
X199567440Y-120142000D01*
X200660000Y-120142000D01*
X200951605Y-120083996D01*
X201198815Y-119918815D01*
X205420631Y-115697000D01*
X212409370Y-115697000D01*
X215622560Y-118910191D01*
X215622560Y-120280000D01*
X215666838Y-120515317D01*
X215805910Y-120731441D01*
X216018110Y-120876431D01*
X216270000Y-120927440D01*
X218070000Y-120927440D01*
X218305317Y-120883162D01*
X218521441Y-120744090D01*
X218666431Y-120531890D01*
X218669719Y-120515656D01*
X219092509Y-120798155D01*
X219679928Y-120915000D01*
X219740072Y-120915000D01*
X220327491Y-120798155D01*
X220825481Y-120465409D01*
X220984501Y-120227418D01*
X221342424Y-120617966D01*
X221885258Y-120871046D01*
X222123000Y-120750997D01*
X222123000Y-119507000D01*
X222377000Y-119507000D01*
X222377000Y-120750997D01*
X222614742Y-120871046D01*
X223157576Y-120617966D01*
X223562240Y-120176417D01*
X223741036Y-119744740D01*
X223620378Y-119507000D01*
X222377000Y-119507000D01*
X222123000Y-119507000D01*
X222103000Y-119507000D01*
X222103000Y-119253000D01*
X222123000Y-119253000D01*
X222123000Y-118009003D01*
X222377000Y-118009003D01*
X222377000Y-119253000D01*
X223620378Y-119253000D01*
X223741036Y-119015260D01*
X223562240Y-118583583D01*
X223467310Y-118480000D01*
X228322560Y-118480000D01*
X228322560Y-120280000D01*
X228366838Y-120515317D01*
X228505910Y-120731441D01*
X228718110Y-120876431D01*
X228970000Y-120927440D01*
X230770000Y-120927440D01*
X231005317Y-120883162D01*
X231221441Y-120744090D01*
X231366431Y-120531890D01*
X231369719Y-120515656D01*
X231792509Y-120798155D01*
X232379928Y-120915000D01*
X232440072Y-120915000D01*
X233027491Y-120798155D01*
X233525481Y-120465409D01*
X233684501Y-120227418D01*
X234042424Y-120617966D01*
X234585258Y-120871046D01*
X234823000Y-120750997D01*
X234823000Y-119507000D01*
X235077000Y-119507000D01*
X235077000Y-120750997D01*
X235314742Y-120871046D01*
X235857576Y-120617966D01*
X236262240Y-120176417D01*
X236441036Y-119744740D01*
X236320378Y-119507000D01*
X235077000Y-119507000D01*
X234823000Y-119507000D01*
X234803000Y-119507000D01*
X234803000Y-119253000D01*
X234823000Y-119253000D01*
X234823000Y-118009003D01*
X235077000Y-118009003D01*
X235077000Y-119253000D01*
X236320378Y-119253000D01*
X236441036Y-119015260D01*
X236262240Y-118583583D01*
X235857576Y-118142034D01*
X235314742Y-117888954D01*
X235077000Y-118009003D01*
X234823000Y-118009003D01*
X234585258Y-117888954D01*
X234042424Y-118142034D01*
X233684501Y-118532582D01*
X233525481Y-118294591D01*
X233027491Y-117961845D01*
X232440072Y-117845000D01*
X232379928Y-117845000D01*
X231792509Y-117961845D01*
X231371974Y-118242837D01*
X231234090Y-118028559D01*
X231021890Y-117883569D01*
X230770000Y-117832560D01*
X228970000Y-117832560D01*
X228734683Y-117876838D01*
X228518559Y-118015910D01*
X228373569Y-118228110D01*
X228322560Y-118480000D01*
X223467310Y-118480000D01*
X223157576Y-118142034D01*
X222614742Y-117888954D01*
X222377000Y-118009003D01*
X222123000Y-118009003D01*
X221885258Y-117888954D01*
X221342424Y-118142034D01*
X220984501Y-118532582D01*
X220825481Y-118294591D01*
X220327491Y-117961845D01*
X219740072Y-117845000D01*
X219679928Y-117845000D01*
X219092509Y-117961845D01*
X218671974Y-118242837D01*
X218534090Y-118028559D01*
X218321890Y-117883569D01*
X218070000Y-117832560D01*
X216700191Y-117832560D01*
X213852630Y-114985000D01*
X239345000Y-114985000D01*
X239345000Y-178385000D01*
X165785000Y-178385000D01*
X165785000Y-171714086D01*
X171386269Y-171714086D01*
X171588854Y-172204380D01*
X171963647Y-172579827D01*
X172453587Y-172783268D01*
X172984086Y-172783731D01*
X173474380Y-172581146D01*
X173849827Y-172206353D01*
X173990094Y-171868554D01*
X174128854Y-172204380D01*
X174503647Y-172579827D01*
X174993587Y-172783268D01*
X175524086Y-172783731D01*
X176014380Y-172581146D01*
X176389827Y-172206353D01*
X176593268Y-171716413D01*
X176593270Y-171714086D01*
X177736269Y-171714086D01*
X177938854Y-172204380D01*
X178313647Y-172579827D01*
X178803587Y-172783268D01*
X179334086Y-172783731D01*
X179824380Y-172581146D01*
X180021681Y-172384188D01*
X180855417Y-172384188D01*
X180917071Y-172619800D01*
X181417480Y-172795927D01*
X181947199Y-172767148D01*
X182302929Y-172619800D01*
X182364583Y-172384188D01*
X181610000Y-171629605D01*
X180855417Y-172384188D01*
X180021681Y-172384188D01*
X180199827Y-172206353D01*
X180333314Y-171884882D01*
X180440200Y-172142929D01*
X180675812Y-172204583D01*
X181430395Y-171450000D01*
X181789605Y-171450000D01*
X182544188Y-172204583D01*
X182779800Y-172142929D01*
X182955927Y-171642520D01*
X182927148Y-171112801D01*
X182779800Y-170757071D01*
X182544188Y-170695417D01*
X181789605Y-171450000D01*
X181430395Y-171450000D01*
X180675812Y-170695417D01*
X180440200Y-170757071D01*
X180341917Y-171036312D01*
X180201146Y-170695620D01*
X180021652Y-170515812D01*
X180855417Y-170515812D01*
X181610000Y-171270395D01*
X182364583Y-170515812D01*
X182302929Y-170280200D01*
X181802520Y-170104073D01*
X181272801Y-170132852D01*
X180917071Y-170280200D01*
X180855417Y-170515812D01*
X180021652Y-170515812D01*
X179826353Y-170320173D01*
X179336413Y-170116732D01*
X178805914Y-170116269D01*
X178315620Y-170318854D01*
X177940173Y-170693647D01*
X177736732Y-171183587D01*
X177736269Y-171714086D01*
X176593270Y-171714086D01*
X176593731Y-171185914D01*
X176391146Y-170695620D01*
X176016353Y-170320173D01*
X175526413Y-170116732D01*
X174995914Y-170116269D01*
X174505620Y-170318854D01*
X174130173Y-170693647D01*
X173989906Y-171031446D01*
X173851146Y-170695620D01*
X173476353Y-170320173D01*
X172986413Y-170116732D01*
X172455914Y-170116269D01*
X171965620Y-170318854D01*
X171590173Y-170693647D01*
X171386732Y-171183587D01*
X171386269Y-171714086D01*
X165785000Y-171714086D01*
X165785000Y-159854694D01*
X165831185Y-159923815D01*
X168371184Y-162463815D01*
X168585697Y-162607148D01*
X168618395Y-162628996D01*
X168910000Y-162687000D01*
X171994309Y-162687000D01*
X171965620Y-162698854D01*
X171590173Y-163073647D01*
X171386732Y-163563587D01*
X171386269Y-164094086D01*
X171588854Y-164584380D01*
X171963647Y-164959827D01*
X172453587Y-165163268D01*
X172984086Y-165163731D01*
X173474380Y-164961146D01*
X173849827Y-164586353D01*
X173990094Y-164248554D01*
X174128854Y-164584380D01*
X174503647Y-164959827D01*
X174993587Y-165163268D01*
X175524086Y-165163731D01*
X176014380Y-164961146D01*
X176389827Y-164586353D01*
X176593268Y-164096413D01*
X176593731Y-163565914D01*
X176391146Y-163075620D01*
X176016353Y-162700173D01*
X175984629Y-162687000D01*
X178344309Y-162687000D01*
X178315620Y-162698854D01*
X177940173Y-163073647D01*
X177736732Y-163563587D01*
X177736269Y-164094086D01*
X177938854Y-164584380D01*
X178313647Y-164959827D01*
X178803587Y-165163268D01*
X179334086Y-165163731D01*
X179824380Y-164961146D01*
X180021681Y-164764188D01*
X180855417Y-164764188D01*
X180917071Y-164999800D01*
X181417480Y-165175927D01*
X181947199Y-165147148D01*
X182302929Y-164999800D01*
X182364583Y-164764188D01*
X181610000Y-164009605D01*
X180855417Y-164764188D01*
X180021681Y-164764188D01*
X180199827Y-164586353D01*
X180333314Y-164264882D01*
X180440200Y-164522929D01*
X180675812Y-164584583D01*
X181430395Y-163830000D01*
X181789605Y-163830000D01*
X182544188Y-164584583D01*
X182779800Y-164522929D01*
X182955927Y-164022520D01*
X182927148Y-163492801D01*
X182779800Y-163137071D01*
X182544188Y-163075417D01*
X181789605Y-163830000D01*
X181430395Y-163830000D01*
X181416253Y-163815858D01*
X181595858Y-163636253D01*
X181610000Y-163650395D01*
X182364583Y-162895812D01*
X182302929Y-162660200D01*
X181897794Y-162517606D01*
X182054313Y-162140668D01*
X182054667Y-161734335D01*
X182458784Y-161734687D01*
X182855689Y-161570689D01*
X183159622Y-161267286D01*
X183324313Y-160870668D01*
X183324687Y-160441216D01*
X183160689Y-160044311D01*
X182857286Y-159740378D01*
X182460668Y-159575687D01*
X182031216Y-159575313D01*
X181634311Y-159739311D01*
X181480354Y-159893000D01*
X169860630Y-159893000D01*
X168402000Y-158434370D01*
X168402000Y-147000630D01*
X168590631Y-146812000D01*
X168779880Y-146812000D01*
X168835519Y-146946657D01*
X169208471Y-147320261D01*
X168837086Y-147690997D01*
X168595276Y-148273341D01*
X168594725Y-148903893D01*
X168835519Y-149486657D01*
X169208471Y-149860261D01*
X168837086Y-150230997D01*
X168595276Y-150813341D01*
X168594725Y-151443893D01*
X168835519Y-152026657D01*
X169280997Y-152472914D01*
X169863341Y-152714724D01*
X170493893Y-152715275D01*
X171076657Y-152474481D01*
X171450261Y-152101529D01*
X171820997Y-152472914D01*
X172403341Y-152714724D01*
X173033893Y-152715275D01*
X173616657Y-152474481D01*
X173990261Y-152101529D01*
X174360997Y-152472914D01*
X174943341Y-152714724D01*
X175573893Y-152715275D01*
X176156657Y-152474481D01*
X176385186Y-152246350D01*
X176863255Y-152246350D01*
X176955792Y-152508019D01*
X177547398Y-152726188D01*
X178177461Y-152701352D01*
X178644208Y-152508019D01*
X178736745Y-152246350D01*
X177800000Y-151309605D01*
X176863255Y-152246350D01*
X176385186Y-152246350D01*
X176596116Y-152035789D01*
X176683650Y-152066745D01*
X177620395Y-151130000D01*
X176683650Y-150193255D01*
X176595561Y-150224407D01*
X176385172Y-150013650D01*
X176863255Y-150013650D01*
X177800000Y-150950395D01*
X178736745Y-150013650D01*
X178644208Y-149751981D01*
X178052602Y-149533812D01*
X177422539Y-149558648D01*
X176955792Y-149751981D01*
X176863255Y-150013650D01*
X176385172Y-150013650D01*
X176159003Y-149787086D01*
X175576659Y-149545276D01*
X174946107Y-149544725D01*
X174363343Y-149785519D01*
X173989739Y-150158471D01*
X173619003Y-149787086D01*
X173036659Y-149545276D01*
X172406107Y-149544725D01*
X171823343Y-149785519D01*
X171449739Y-150158471D01*
X171151529Y-149859739D01*
X171522914Y-149489003D01*
X171764724Y-148906659D01*
X171765275Y-148276107D01*
X171524481Y-147693343D01*
X171151529Y-147319739D01*
X171522914Y-146949003D01*
X171764724Y-146366659D01*
X171765275Y-145736107D01*
X171524481Y-145153343D01*
X171151529Y-144779739D01*
X171522914Y-144409003D01*
X171764724Y-143826659D01*
X171765275Y-143196107D01*
X171524481Y-142613343D01*
X171151529Y-142239739D01*
X171522914Y-141869003D01*
X171764724Y-141286659D01*
X171765275Y-140656107D01*
X171524481Y-140073343D01*
X171151529Y-139699739D01*
X171522914Y-139329003D01*
X171764724Y-138746659D01*
X171765275Y-138116107D01*
X171524481Y-137533343D01*
X171151529Y-137159739D01*
X171522914Y-136789003D01*
X171764724Y-136206659D01*
X171765275Y-135576107D01*
X171524481Y-134993343D01*
X171151529Y-134619739D01*
X171522914Y-134249003D01*
X171764724Y-133666659D01*
X171765275Y-133036107D01*
X171524481Y-132453343D01*
X171151529Y-132079739D01*
X171522914Y-131709003D01*
X171764724Y-131126659D01*
X171765275Y-130496107D01*
X171524481Y-129913343D01*
X171151529Y-129539739D01*
X171522914Y-129169003D01*
X171764724Y-128586659D01*
X171765275Y-127956107D01*
X171524481Y-127373343D01*
X171151529Y-126999739D01*
X171522914Y-126629003D01*
X171764724Y-126046659D01*
X171765275Y-125416107D01*
X171524481Y-124833343D01*
X171151529Y-124459739D01*
X171522914Y-124089003D01*
X171764724Y-123506659D01*
X171765275Y-122876107D01*
X171524481Y-122293343D01*
X171151529Y-121919739D01*
X171522914Y-121549003D01*
X171764724Y-120966659D01*
X171765275Y-120336107D01*
X171524481Y-119753343D01*
X171085789Y-119313884D01*
X171116745Y-119226350D01*
X170180000Y-118289605D01*
X169243255Y-119226350D01*
X169274407Y-119314439D01*
X168837086Y-119750997D01*
X168595276Y-120333341D01*
X168594725Y-120963893D01*
X168835519Y-121546657D01*
X169208471Y-121920261D01*
X168837086Y-122290997D01*
X168595276Y-122873341D01*
X168594725Y-123503893D01*
X168835519Y-124086657D01*
X169208471Y-124460261D01*
X168837086Y-124830997D01*
X168595276Y-125413341D01*
X168594725Y-126043893D01*
X168835519Y-126626657D01*
X169208471Y-127000261D01*
X168837086Y-127370997D01*
X168595276Y-127953341D01*
X168594725Y-128583893D01*
X168835519Y-129166657D01*
X169208471Y-129540261D01*
X168837086Y-129910997D01*
X168595276Y-130493341D01*
X168594725Y-131123893D01*
X168835519Y-131706657D01*
X169208471Y-132080261D01*
X168837086Y-132450997D01*
X168595276Y-133033341D01*
X168594725Y-133663893D01*
X168835519Y-134246657D01*
X169208471Y-134620261D01*
X168837086Y-134990997D01*
X168595276Y-135573341D01*
X168594725Y-136203893D01*
X168835519Y-136786657D01*
X169208471Y-137160261D01*
X168837086Y-137530997D01*
X168595276Y-138113341D01*
X168594725Y-138743893D01*
X168835519Y-139326657D01*
X169208471Y-139700261D01*
X168837086Y-140070997D01*
X168595276Y-140653341D01*
X168594725Y-141283893D01*
X168835519Y-141866657D01*
X169208471Y-142240261D01*
X168837086Y-142610997D01*
X168780197Y-142748000D01*
X167005000Y-142748000D01*
X166713395Y-142806004D01*
X166614377Y-142872166D01*
X166466185Y-142971184D01*
X165831185Y-143606185D01*
X165785000Y-143675306D01*
X165785000Y-117857398D01*
X168583812Y-117857398D01*
X168608648Y-118487461D01*
X168801981Y-118954208D01*
X169063650Y-119046745D01*
X170000395Y-118110000D01*
X170359605Y-118110000D01*
X171296350Y-119046745D01*
X171558019Y-118954208D01*
X171776188Y-118362602D01*
X171751352Y-117732539D01*
X171558019Y-117265792D01*
X171296350Y-117173255D01*
X170359605Y-118110000D01*
X170000395Y-118110000D01*
X169063650Y-117173255D01*
X168801981Y-117265792D01*
X168583812Y-117857398D01*
X165785000Y-117857398D01*
X165785000Y-116993650D01*
X169243255Y-116993650D01*
X170180000Y-117930395D01*
X171116745Y-116993650D01*
X171024208Y-116731981D01*
X170432602Y-116513812D01*
X169802539Y-116538648D01*
X169335792Y-116731981D01*
X169243255Y-116993650D01*
X165785000Y-116993650D01*
X165785000Y-114985000D01*
X203977369Y-114985000D01*
X201519423Y-117442947D01*
X201519423Y-117442947D01*
G37*
X201519423Y-117442947D02*
X201272286Y-117195378D01*
X200875668Y-117030687D01*
X200658128Y-117030498D01*
X199928815Y-116301185D01*
X199784864Y-116205000D01*
X199681605Y-116136004D01*
X199390000Y-116078000D01*
X194945000Y-116078000D01*
X194653395Y-116136004D01*
X194406184Y-116301185D01*
X194108420Y-116598949D01*
X193955689Y-116229311D01*
X193652286Y-115925378D01*
X193255668Y-115760687D01*
X193038128Y-115760498D01*
X192943815Y-115666185D01*
X192903124Y-115638996D01*
X192696605Y-115501004D01*
X192405000Y-115443000D01*
X187325000Y-115443000D01*
X187033395Y-115501004D01*
X186826876Y-115638996D01*
X186786185Y-115666185D01*
X185871220Y-116581150D01*
X185736659Y-116525276D01*
X185106107Y-116524725D01*
X184523343Y-116765519D01*
X184077086Y-117210997D01*
X183835276Y-117793341D01*
X183834725Y-118423893D01*
X184075519Y-119006657D01*
X184448471Y-119380261D01*
X184149739Y-119678471D01*
X183779003Y-119307086D01*
X183196659Y-119065276D01*
X182566107Y-119064725D01*
X181983343Y-119305519D01*
X181537086Y-119750997D01*
X181295276Y-120333341D01*
X181294725Y-120963893D01*
X181535519Y-121546657D01*
X181980997Y-121992914D01*
X182563341Y-122234724D01*
X183193893Y-122235275D01*
X183776657Y-121994481D01*
X184150261Y-121621529D01*
X184448471Y-121920261D01*
X184077086Y-122290997D01*
X183835276Y-122873341D01*
X183834725Y-123503893D01*
X184075519Y-124086657D01*
X184448471Y-124460261D01*
X184149739Y-124758471D01*
X183779003Y-124387086D01*
X183196659Y-124145276D01*
X182566107Y-124144725D01*
X181983343Y-124385519D01*
X181537086Y-124830997D01*
X181295276Y-125413341D01*
X181294725Y-126043893D01*
X181535519Y-126626657D01*
X181908471Y-127000261D01*
X181537086Y-127370997D01*
X181295276Y-127953341D01*
X181294725Y-128583893D01*
X181535519Y-129166657D01*
X181908471Y-129540261D01*
X181537086Y-129910997D01*
X181295276Y-130493341D01*
X181294725Y-131123893D01*
X181535519Y-131706657D01*
X181980997Y-132152914D01*
X182563341Y-132394724D01*
X183193893Y-132395275D01*
X183776657Y-132154481D01*
X184150261Y-131781529D01*
X184448471Y-132080261D01*
X184077086Y-132450997D01*
X183835276Y-133033341D01*
X183834725Y-133663893D01*
X184075519Y-134246657D01*
X184448471Y-134620261D01*
X184077086Y-134990997D01*
X183835276Y-135573341D01*
X183834725Y-136203893D01*
X184075519Y-136786657D01*
X184448471Y-137160261D01*
X184077086Y-137530997D01*
X183835276Y-138113341D01*
X183834725Y-138743893D01*
X184075519Y-139326657D01*
X184448471Y-139700261D01*
X184077086Y-140070997D01*
X183835276Y-140653341D01*
X183834725Y-141283893D01*
X184075519Y-141866657D01*
X184448471Y-142240261D01*
X184077086Y-142610997D01*
X183835276Y-143193341D01*
X183834725Y-143823893D01*
X184075519Y-144406657D01*
X184448471Y-144780261D01*
X184077086Y-145150997D01*
X183835276Y-145733341D01*
X183834725Y-146363893D01*
X184075519Y-146946657D01*
X184448471Y-147320261D01*
X184077086Y-147690997D01*
X183835276Y-148273341D01*
X183834725Y-148903893D01*
X184075519Y-149486657D01*
X184448471Y-149860261D01*
X184149739Y-150158471D01*
X183779003Y-149787086D01*
X183196659Y-149545276D01*
X182566107Y-149544725D01*
X181983343Y-149785519D01*
X181609739Y-150158471D01*
X181239003Y-149787086D01*
X180656659Y-149545276D01*
X180026107Y-149544725D01*
X179443343Y-149785519D01*
X179003884Y-150224211D01*
X178916350Y-150193255D01*
X177979605Y-151130000D01*
X178916350Y-152066745D01*
X179004439Y-152035593D01*
X179440997Y-152472914D01*
X180023341Y-152714724D01*
X180653893Y-152715275D01*
X181236657Y-152474481D01*
X181610261Y-152101529D01*
X181980997Y-152472914D01*
X182563341Y-152714724D01*
X183193893Y-152715275D01*
X183776657Y-152474481D01*
X184150261Y-152101529D01*
X184520997Y-152472914D01*
X185103341Y-152714724D01*
X185733893Y-152715275D01*
X186071656Y-152575714D01*
X185739370Y-152908000D01*
X175260000Y-152908000D01*
X174968395Y-152966004D01*
X174721184Y-153131185D01*
X172181185Y-155671185D01*
X172016004Y-155918395D01*
X171958000Y-156210000D01*
X171958000Y-156356461D01*
X171590173Y-156723647D01*
X171386732Y-157213587D01*
X171386269Y-157744086D01*
X171588854Y-158234380D01*
X171963647Y-158609827D01*
X172453587Y-158813268D01*
X172984086Y-158813731D01*
X173474380Y-158611146D01*
X173849827Y-158236353D01*
X173990094Y-157898554D01*
X174128854Y-158234380D01*
X174503647Y-158609827D01*
X174993587Y-158813268D01*
X175524086Y-158813731D01*
X176014380Y-158611146D01*
X176389827Y-158236353D01*
X176593268Y-157746413D01*
X176593731Y-157215914D01*
X176391146Y-156725620D01*
X176016353Y-156350173D01*
X175526413Y-156146732D01*
X174995914Y-156146269D01*
X174505620Y-156348854D01*
X174130173Y-156723647D01*
X173989906Y-157061446D01*
X173851146Y-156725620D01*
X173566826Y-156440804D01*
X175575631Y-154432000D01*
X181040370Y-154432000D01*
X179325647Y-156146723D01*
X178805914Y-156146269D01*
X178315620Y-156348854D01*
X177940173Y-156723647D01*
X177736732Y-157213587D01*
X177736269Y-157744086D01*
X177938854Y-158234380D01*
X178313647Y-158609827D01*
X178803587Y-158813268D01*
X179334086Y-158813731D01*
X179824380Y-158611146D01*
X180021681Y-158414188D01*
X180855417Y-158414188D01*
X180917071Y-158649800D01*
X181417480Y-158825927D01*
X181947199Y-158797148D01*
X182302929Y-158649800D01*
X182364583Y-158414188D01*
X181610000Y-157659605D01*
X180855417Y-158414188D01*
X180021681Y-158414188D01*
X180199827Y-158236353D01*
X180333314Y-157914882D01*
X180440200Y-158172929D01*
X180675812Y-158234583D01*
X181430395Y-157480000D01*
X181789605Y-157480000D01*
X182544188Y-158234583D01*
X182779800Y-158172929D01*
X182955927Y-157672520D01*
X182927148Y-157142801D01*
X182779800Y-156787071D01*
X182544188Y-156725417D01*
X181789605Y-157480000D01*
X181430395Y-157480000D01*
X181416253Y-157465858D01*
X181595858Y-157286253D01*
X181610000Y-157300395D01*
X182364583Y-156545812D01*
X182302929Y-156310200D01*
X181802520Y-156134073D01*
X181475807Y-156151823D01*
X182560630Y-155067000D01*
X186690000Y-155067000D01*
X186981605Y-155008996D01*
X187228815Y-154843815D01*
X189768815Y-152303816D01*
X189933996Y-152056605D01*
X189949101Y-151980668D01*
X189992000Y-151765000D01*
X189992000Y-151064631D01*
X190596184Y-151668815D01*
X190774129Y-151787714D01*
X190843395Y-151833996D01*
X191135000Y-151892000D01*
X195020595Y-151892000D01*
X194876004Y-152108395D01*
X194818000Y-152400000D01*
X194818000Y-158434370D01*
X193359370Y-159893000D01*
X190629642Y-159893000D01*
X190477286Y-159740378D01*
X190080668Y-159575687D01*
X189651216Y-159575313D01*
X189254311Y-159739311D01*
X188950378Y-160042714D01*
X188785687Y-160439332D01*
X188785333Y-160845665D01*
X188381216Y-160845313D01*
X187984311Y-161009311D01*
X187680378Y-161312714D01*
X187515687Y-161709332D01*
X187515313Y-162138784D01*
X187679311Y-162535689D01*
X187982714Y-162839622D01*
X188379332Y-163004313D01*
X188808784Y-163004687D01*
X189205689Y-162840689D01*
X189359646Y-162687000D01*
X194945000Y-162687000D01*
X195236605Y-162628996D01*
X195483815Y-162463815D01*
X196308591Y-161639039D01*
X196728096Y-161639039D01*
X196888959Y-162027423D01*
X197264866Y-162442389D01*
X197770959Y-162681914D01*
X197993000Y-162560629D01*
X197993000Y-161417000D01*
X196850085Y-161417000D01*
X196728096Y-161639039D01*
X196308591Y-161639039D01*
X196826875Y-161120755D01*
X196850085Y-161163000D01*
X197993000Y-161163000D01*
X197993000Y-161143000D01*
X198247000Y-161143000D01*
X198247000Y-161163000D01*
X198267000Y-161163000D01*
X198267000Y-161417000D01*
X198247000Y-161417000D01*
X198247000Y-162560629D01*
X198469041Y-162681914D01*
X198975134Y-162442389D01*
X199263000Y-162124612D01*
X199263000Y-169545000D01*
X199321004Y-169836605D01*
X199362903Y-169899311D01*
X199486185Y-170083815D01*
X200756184Y-171353815D01*
X200994188Y-171512844D01*
X200899156Y-171616538D01*
X200893162Y-171584683D01*
X200754090Y-171368559D01*
X200541890Y-171223569D01*
X200290000Y-171172560D01*
X198490000Y-171172560D01*
X198254683Y-171216838D01*
X198038559Y-171355910D01*
X197893569Y-171568110D01*
X197842560Y-171820000D01*
X197842560Y-173620000D01*
X197886838Y-173855317D01*
X198025910Y-174071441D01*
X198238110Y-174216431D01*
X198490000Y-174267440D01*
X200290000Y-174267440D01*
X200525317Y-174223162D01*
X200741441Y-174084090D01*
X200886431Y-173871890D01*
X200896766Y-173820854D01*
X201022424Y-173957966D01*
X201565258Y-174211046D01*
X201803000Y-174090997D01*
X201803000Y-172847000D01*
X201783000Y-172847000D01*
X201783000Y-172593000D01*
X201803000Y-172593000D01*
X201803000Y-172573000D01*
X202057000Y-172573000D01*
X202057000Y-172593000D01*
X202077000Y-172593000D01*
X202077000Y-172847000D01*
X202057000Y-172847000D01*
X202057000Y-174090997D01*
X202294742Y-174211046D01*
X202837576Y-173957966D01*
X203195499Y-173567418D01*
X203354519Y-173805409D01*
X203852509Y-174138155D01*
X204439928Y-174255000D01*
X204500072Y-174255000D01*
X205087491Y-174138155D01*
X205585481Y-173805409D01*
X205918227Y-173307419D01*
X206035072Y-172720000D01*
X205918227Y-172132581D01*
X205585481Y-171634591D01*
X205499290Y-171577000D01*
X209420358Y-171577000D01*
X209572714Y-171729622D01*
X209969332Y-171894313D01*
X210398784Y-171894687D01*
X210795689Y-171730689D01*
X211099622Y-171427286D01*
X211264313Y-171030668D01*
X211264687Y-170601216D01*
X211100689Y-170204311D01*
X210797286Y-169900378D01*
X210400668Y-169735687D01*
X209971216Y-169735313D01*
X209574311Y-169899311D01*
X209420354Y-170053000D01*
X201610631Y-170053000D01*
X200787000Y-169229370D01*
X200787000Y-155575000D01*
X200728996Y-155283395D01*
X200563815Y-155036185D01*
X199567440Y-154039810D01*
X199567440Y-152870000D01*
X199523162Y-152634683D01*
X199453870Y-152527000D01*
X200979370Y-152527000D01*
X203073000Y-154620631D01*
X203073000Y-159385000D01*
X203131004Y-159676605D01*
X203172903Y-159739311D01*
X203296185Y-159923815D01*
X204340843Y-160968473D01*
X204276887Y-161290000D01*
X204386120Y-161839151D01*
X204697189Y-162304698D01*
X205162736Y-162615767D01*
X205711887Y-162725000D01*
X205768113Y-162725000D01*
X206317264Y-162615767D01*
X206782811Y-162304698D01*
X207093880Y-161839151D01*
X207203113Y-161290000D01*
X207093880Y-160740849D01*
X206782811Y-160275302D01*
X206400725Y-160020000D01*
X206500621Y-159953251D01*
X209423000Y-162875631D01*
X209423000Y-167005000D01*
X209481004Y-167296605D01*
X209645948Y-167543461D01*
X209646185Y-167543815D01*
X212186184Y-170083815D01*
X212364129Y-170202714D01*
X212433395Y-170248996D01*
X212725000Y-170307000D01*
X213230358Y-170307000D01*
X213382714Y-170459622D01*
X213779332Y-170624313D01*
X214208784Y-170624687D01*
X214605689Y-170460689D01*
X214909622Y-170157286D01*
X215074313Y-169760668D01*
X215074687Y-169331216D01*
X214910689Y-168934311D01*
X214607286Y-168630378D01*
X214210668Y-168465687D01*
X213781216Y-168465313D01*
X213384311Y-168629311D01*
X213230354Y-168783000D01*
X213040631Y-168783000D01*
X210947000Y-166689370D01*
X210947000Y-166644285D01*
X211974760Y-166644285D01*
X212185169Y-167153515D01*
X212574436Y-167543461D01*
X213083298Y-167754759D01*
X213634285Y-167755240D01*
X214143515Y-167544831D01*
X214347183Y-167341517D01*
X215108088Y-167341517D01*
X215176077Y-167582460D01*
X215695171Y-167767201D01*
X216245448Y-167739230D01*
X216623923Y-167582460D01*
X216691912Y-167341517D01*
X215900000Y-166549605D01*
X215108088Y-167341517D01*
X214347183Y-167341517D01*
X214533461Y-167155564D01*
X214623377Y-166939021D01*
X214687540Y-167093923D01*
X214928483Y-167161912D01*
X215720395Y-166370000D01*
X216079605Y-166370000D01*
X216871517Y-167161912D01*
X217112460Y-167093923D01*
X217297201Y-166574829D01*
X217269230Y-166024552D01*
X217112460Y-165646077D01*
X216871517Y-165578088D01*
X216079605Y-166370000D01*
X215720395Y-166370000D01*
X214928483Y-165578088D01*
X214687540Y-165646077D01*
X214628268Y-165812621D01*
X214534831Y-165586485D01*
X214347157Y-165398483D01*
X215108088Y-165398483D01*
X215900000Y-166190395D01*
X216691912Y-165398483D01*
X216623923Y-165157540D01*
X216104829Y-164972799D01*
X215554552Y-165000770D01*
X215176077Y-165157540D01*
X215108088Y-165398483D01*
X214347157Y-165398483D01*
X214145564Y-165196539D01*
X213636702Y-164985241D01*
X213085715Y-164984760D01*
X212576485Y-165195169D01*
X212186539Y-165584436D01*
X211975241Y-166093298D01*
X211974760Y-166644285D01*
X210947000Y-166644285D01*
X210947000Y-162560000D01*
X210888996Y-162268395D01*
X210803651Y-162140668D01*
X210723816Y-162021185D01*
X207141157Y-158438527D01*
X207093880Y-158200849D01*
X206782811Y-157735302D01*
X206400725Y-157480000D01*
X206782811Y-157224698D01*
X207093880Y-156759151D01*
X207203113Y-156210000D01*
X207093880Y-155660849D01*
X206782811Y-155195302D01*
X206400725Y-154940000D01*
X206782811Y-154684698D01*
X207093880Y-154219151D01*
X207203113Y-153670000D01*
X207093880Y-153120849D01*
X206782811Y-152655302D01*
X206317264Y-152344233D01*
X205768113Y-152235000D01*
X205711887Y-152235000D01*
X205162736Y-152344233D01*
X204697189Y-152655302D01*
X204386120Y-153120849D01*
X204277010Y-153669379D01*
X202499630Y-151892000D01*
X206694370Y-151892000D01*
X211551185Y-156748815D01*
X211798395Y-156913996D01*
X211962560Y-156946651D01*
X211962560Y-156960000D01*
X212006838Y-157195317D01*
X212145910Y-157411441D01*
X212358110Y-157556431D01*
X212610000Y-157607440D01*
X214110000Y-157607440D01*
X214345317Y-157563162D01*
X214561441Y-157424090D01*
X214706431Y-157211890D01*
X214712581Y-157181517D01*
X215108088Y-157181517D01*
X215176077Y-157422460D01*
X215695171Y-157607201D01*
X216245448Y-157579230D01*
X216623923Y-157422460D01*
X216691912Y-157181517D01*
X215900000Y-156389605D01*
X215108088Y-157181517D01*
X214712581Y-157181517D01*
X214757440Y-156960000D01*
X214757440Y-156953647D01*
X214928483Y-157001912D01*
X215720395Y-156210000D01*
X216079605Y-156210000D01*
X216871517Y-157001912D01*
X217112460Y-156933923D01*
X217297201Y-156414829D01*
X217269230Y-155864552D01*
X217112460Y-155486077D01*
X216871517Y-155418088D01*
X216079605Y-156210000D01*
X215720395Y-156210000D01*
X214928483Y-155418088D01*
X214757440Y-155466353D01*
X214757440Y-155460000D01*
X214715759Y-155238483D01*
X215108088Y-155238483D01*
X215900000Y-156030395D01*
X216691912Y-155238483D01*
X216623923Y-154997540D01*
X216104829Y-154812799D01*
X215554552Y-154840770D01*
X215176077Y-154997540D01*
X215108088Y-155238483D01*
X214715759Y-155238483D01*
X214713162Y-155224683D01*
X214574090Y-155008559D01*
X214361890Y-154863569D01*
X214110000Y-154812560D01*
X212610000Y-154812560D01*
X212374683Y-154856838D01*
X212158559Y-154995910D01*
X212075338Y-155117708D01*
X207548815Y-150591185D01*
X207508124Y-150563996D01*
X207301605Y-150426004D01*
X207010000Y-150368000D01*
X191450631Y-150368000D01*
X190627000Y-149544370D01*
X190627000Y-143859039D01*
X196728096Y-143859039D01*
X196888959Y-144247423D01*
X197264866Y-144662389D01*
X197770959Y-144901914D01*
X197993000Y-144780629D01*
X197993000Y-143637000D01*
X198247000Y-143637000D01*
X198247000Y-144780629D01*
X198469041Y-144901914D01*
X198975134Y-144662389D01*
X199351041Y-144247423D01*
X199511904Y-143859039D01*
X199389915Y-143637000D01*
X198247000Y-143637000D01*
X197993000Y-143637000D01*
X196850085Y-143637000D01*
X196728096Y-143859039D01*
X190627000Y-143859039D01*
X190627000Y-138430000D01*
X196656887Y-138430000D01*
X196766120Y-138979151D01*
X197077189Y-139444698D01*
X197459275Y-139700000D01*
X197077189Y-139955302D01*
X196766120Y-140420849D01*
X196656887Y-140970000D01*
X196766120Y-141519151D01*
X197077189Y-141984698D01*
X197481703Y-142254986D01*
X197264866Y-142357611D01*
X196888959Y-142772577D01*
X196728096Y-143160961D01*
X196850085Y-143383000D01*
X197993000Y-143383000D01*
X197993000Y-143363000D01*
X198247000Y-143363000D01*
X198247000Y-143383000D01*
X199389915Y-143383000D01*
X199511904Y-143160961D01*
X199351041Y-142772577D01*
X198975134Y-142357611D01*
X198758297Y-142254986D01*
X199162811Y-141984698D01*
X199473880Y-141519151D01*
X199583113Y-140970000D01*
X199473880Y-140420849D01*
X199162811Y-139955302D01*
X198780725Y-139700000D01*
X198880621Y-139633251D01*
X199580501Y-140333131D01*
X199580313Y-140548784D01*
X199744311Y-140945689D01*
X200047714Y-141249622D01*
X200444332Y-141414313D01*
X200873784Y-141414687D01*
X201270689Y-141250689D01*
X201574622Y-140947286D01*
X201739313Y-140550668D01*
X201739687Y-140121216D01*
X201575689Y-139724311D01*
X201272286Y-139420378D01*
X200875668Y-139255687D01*
X200658128Y-139255498D01*
X199521157Y-138118527D01*
X199473880Y-137880849D01*
X199162811Y-137415302D01*
X199018535Y-137318899D01*
X199155317Y-137293162D01*
X199371441Y-137154090D01*
X199516431Y-136941890D01*
X199567440Y-136690000D01*
X199567440Y-135520190D01*
X201610630Y-133477000D01*
X211139370Y-133477000D01*
X212821185Y-135158815D01*
X213068395Y-135323996D01*
X213360000Y-135382000D01*
X215622560Y-135382000D01*
X215622560Y-135520000D01*
X215666838Y-135755317D01*
X215805910Y-135971441D01*
X216018110Y-136116431D01*
X216270000Y-136167440D01*
X218070000Y-136167440D01*
X218305317Y-136123162D01*
X218521441Y-135984090D01*
X218666431Y-135771890D01*
X218669719Y-135755656D01*
X219092509Y-136038155D01*
X219679928Y-136155000D01*
X219740072Y-136155000D01*
X220327491Y-136038155D01*
X220825481Y-135705409D01*
X220984501Y-135467418D01*
X221342424Y-135857966D01*
X221885258Y-136111046D01*
X222123000Y-135990997D01*
X222123000Y-134747000D01*
X222377000Y-134747000D01*
X222377000Y-135990997D01*
X222614742Y-136111046D01*
X223157576Y-135857966D01*
X223562240Y-135416417D01*
X223741036Y-134984740D01*
X223620378Y-134747000D01*
X222377000Y-134747000D01*
X222123000Y-134747000D01*
X222103000Y-134747000D01*
X222103000Y-134493000D01*
X222123000Y-134493000D01*
X222123000Y-133249003D01*
X222377000Y-133249003D01*
X222377000Y-134493000D01*
X223620378Y-134493000D01*
X223741036Y-134255260D01*
X223562240Y-133823583D01*
X223157576Y-133382034D01*
X222614742Y-133128954D01*
X222377000Y-133249003D01*
X222123000Y-133249003D01*
X221885258Y-133128954D01*
X221342424Y-133382034D01*
X220984501Y-133772582D01*
X220825481Y-133534591D01*
X220327491Y-133201845D01*
X219740072Y-133085000D01*
X219679928Y-133085000D01*
X219092509Y-133201845D01*
X218671974Y-133482837D01*
X218534090Y-133268559D01*
X218321890Y-133123569D01*
X218070000Y-133072560D01*
X216270000Y-133072560D01*
X216034683Y-133116838D01*
X215818559Y-133255910D01*
X215673569Y-133468110D01*
X215622560Y-133720000D01*
X215622560Y-133858000D01*
X213675630Y-133858000D01*
X212757053Y-132939423D01*
X213004622Y-132692286D01*
X213169313Y-132295668D01*
X213169687Y-131866216D01*
X213005689Y-131469311D01*
X212852000Y-131315354D01*
X212852000Y-130810000D01*
X212793996Y-130518395D01*
X212628815Y-130271185D01*
X208089499Y-125731869D01*
X208089687Y-125516216D01*
X207925689Y-125119311D01*
X207622286Y-124815378D01*
X207225668Y-124650687D01*
X207165193Y-124650634D01*
X207203113Y-124460000D01*
X207093880Y-123910849D01*
X206782811Y-123445302D01*
X206400725Y-123190000D01*
X206782811Y-122934698D01*
X207093880Y-122469151D01*
X207200488Y-121933198D01*
X207200313Y-122133784D01*
X207364311Y-122530689D01*
X207667714Y-122834622D01*
X208064332Y-122999313D01*
X208281872Y-122999502D01*
X212821185Y-127538815D01*
X213068395Y-127703996D01*
X213360000Y-127762000D01*
X215622560Y-127762000D01*
X215622560Y-127900000D01*
X215666838Y-128135317D01*
X215805910Y-128351441D01*
X216018110Y-128496431D01*
X216270000Y-128547440D01*
X217639810Y-128547440D01*
X219806185Y-130713815D01*
X220053395Y-130878996D01*
X220345000Y-130937000D01*
X224474370Y-130937000D01*
X224663000Y-131125631D01*
X224663000Y-152719370D01*
X223775647Y-153606723D01*
X223255914Y-153606269D01*
X222765620Y-153808854D01*
X222390173Y-154183647D01*
X222186732Y-154673587D01*
X222186269Y-155204086D01*
X222388854Y-155694380D01*
X222763647Y-156069827D01*
X223253587Y-156273268D01*
X223784086Y-156273731D01*
X224274380Y-156071146D01*
X224649827Y-155696353D01*
X224790094Y-155358554D01*
X224928854Y-155694380D01*
X225303647Y-156069827D01*
X225793587Y-156273268D01*
X226324086Y-156273731D01*
X226814380Y-156071146D01*
X227189827Y-155696353D01*
X227203000Y-155664629D01*
X227203000Y-160564309D01*
X227191146Y-160535620D01*
X226816353Y-160160173D01*
X226519566Y-160036936D01*
X221742000Y-155259370D01*
X221742000Y-153670000D01*
X221704123Y-153479578D01*
X221828784Y-153479687D01*
X222225689Y-153315689D01*
X222529622Y-153012286D01*
X222694313Y-152615668D01*
X222694443Y-152465979D01*
X222907714Y-152679622D01*
X223304332Y-152844313D01*
X223733784Y-152844687D01*
X224130689Y-152680689D01*
X224434622Y-152377286D01*
X224599313Y-151980668D01*
X224599687Y-151551216D01*
X224435689Y-151154311D01*
X224282000Y-151000354D01*
X224282000Y-146179642D01*
X224434622Y-146027286D01*
X224599313Y-145630668D01*
X224599687Y-145201216D01*
X224435689Y-144804311D01*
X224132286Y-144500378D01*
X223735668Y-144335687D01*
X223306216Y-144335313D01*
X222909311Y-144499311D01*
X222605378Y-144802714D01*
X222440687Y-145199332D01*
X222440313Y-145628784D01*
X222604311Y-146025689D01*
X222758000Y-146179646D01*
X222758000Y-151000358D01*
X222605378Y-151152714D01*
X222440687Y-151549332D01*
X222440557Y-151699021D01*
X222377000Y-151635354D01*
X222377000Y-147449642D01*
X222529622Y-147297286D01*
X222694313Y-146900668D01*
X222694687Y-146471216D01*
X222530689Y-146074311D01*
X222227286Y-145770378D01*
X221830668Y-145605687D01*
X221401216Y-145605313D01*
X221004311Y-145769311D01*
X220700378Y-146072714D01*
X220618561Y-146269750D01*
X220495564Y-146146539D01*
X220263130Y-146050024D01*
X220493515Y-145954831D01*
X220883461Y-145565564D01*
X221094759Y-145056702D01*
X221095240Y-144505715D01*
X220884831Y-143996485D01*
X220495564Y-143606539D01*
X220263130Y-143510024D01*
X220493515Y-143414831D01*
X220883461Y-143025564D01*
X221094759Y-142516702D01*
X221095240Y-141965715D01*
X220884831Y-141456485D01*
X220495564Y-141066539D01*
X219986702Y-140855241D01*
X219435715Y-140854760D01*
X218926485Y-141065169D01*
X218536539Y-141454436D01*
X218325241Y-141963298D01*
X218324760Y-142514285D01*
X218535169Y-143023515D01*
X218924436Y-143413461D01*
X219156870Y-143509976D01*
X218926485Y-143605169D01*
X218536539Y-143994436D01*
X218325241Y-144503298D01*
X218324760Y-145054285D01*
X218535169Y-145563515D01*
X218924436Y-145953461D01*
X219156870Y-146049976D01*
X218926485Y-146145169D01*
X218536539Y-146534436D01*
X218325241Y-147043298D01*
X218324760Y-147594285D01*
X218535169Y-148103515D01*
X218904091Y-148473080D01*
X218724683Y-148506838D01*
X218508559Y-148645910D01*
X218363569Y-148858110D01*
X218312560Y-149110000D01*
X218312560Y-149924929D01*
X208818815Y-140431185D01*
X208674864Y-140335000D01*
X208571605Y-140266004D01*
X208280000Y-140208000D01*
X206951659Y-140208000D01*
X206782811Y-139955302D01*
X206400725Y-139700000D01*
X206782811Y-139444698D01*
X206951659Y-139192000D01*
X216219370Y-139192000D01*
X217266184Y-140238815D01*
X217513395Y-140403996D01*
X217805000Y-140462000D01*
X220535389Y-140462000D01*
X220535313Y-140548784D01*
X220699311Y-140945689D01*
X221002714Y-141249622D01*
X221399332Y-141414313D01*
X221828784Y-141414687D01*
X222225689Y-141250689D01*
X222529622Y-140947286D01*
X222694313Y-140550668D01*
X222694687Y-140121216D01*
X222530689Y-139724311D01*
X222316311Y-139509559D01*
X222463784Y-139509687D01*
X222860689Y-139345689D01*
X223164622Y-139042286D01*
X223329313Y-138645668D01*
X223329687Y-138216216D01*
X223165689Y-137819311D01*
X222862286Y-137515378D01*
X222465668Y-137350687D01*
X222036216Y-137350313D01*
X221639311Y-137514311D01*
X221485354Y-137668000D01*
X219204642Y-137668000D01*
X219052286Y-137515378D01*
X218655668Y-137350687D01*
X218226216Y-137350313D01*
X217829311Y-137514311D01*
X217525378Y-137817714D01*
X217371330Y-138188700D01*
X217073815Y-137891185D01*
X216929864Y-137795000D01*
X216826605Y-137726004D01*
X216535000Y-137668000D01*
X206951659Y-137668000D01*
X206782811Y-137415302D01*
X206400725Y-137160000D01*
X206782811Y-136904698D01*
X207093880Y-136439151D01*
X207203113Y-135890000D01*
X207093880Y-135340849D01*
X206782811Y-134875302D01*
X206317264Y-134564233D01*
X205768113Y-134455000D01*
X205711887Y-134455000D01*
X205162736Y-134564233D01*
X204697189Y-134875302D01*
X204386120Y-135340849D01*
X204276887Y-135890000D01*
X204386120Y-136439151D01*
X204697189Y-136904698D01*
X205079275Y-137160000D01*
X204697189Y-137415302D01*
X204386120Y-137880849D01*
X204276887Y-138430000D01*
X204386120Y-138979151D01*
X204697189Y-139444698D01*
X205079275Y-139700000D01*
X204697189Y-139955302D01*
X204386120Y-140420849D01*
X204276887Y-140970000D01*
X204386120Y-141519151D01*
X204697189Y-141984698D01*
X205079275Y-142240000D01*
X204697189Y-142495302D01*
X204386120Y-142960849D01*
X204276887Y-143510000D01*
X204386120Y-144059151D01*
X204697189Y-144524698D01*
X205162736Y-144835767D01*
X205711887Y-144945000D01*
X205768113Y-144945000D01*
X206317264Y-144835767D01*
X206782811Y-144524698D01*
X207093880Y-144059151D01*
X207203113Y-143510000D01*
X207093880Y-142960849D01*
X206782811Y-142495302D01*
X206400725Y-142240000D01*
X206782811Y-141984698D01*
X206951659Y-141732000D01*
X207964370Y-141732000D01*
X220218000Y-153985631D01*
X220218000Y-155575000D01*
X220276004Y-155866605D01*
X220438502Y-156109800D01*
X220441185Y-156113815D01*
X224909882Y-160582512D01*
X224789906Y-160871446D01*
X224651146Y-160535620D01*
X224276353Y-160160173D01*
X223786413Y-159956732D01*
X223255914Y-159956269D01*
X222765620Y-160158854D01*
X222390173Y-160533647D01*
X222186732Y-161023587D01*
X222186269Y-161554086D01*
X222388854Y-162044380D01*
X222763647Y-162419827D01*
X223253587Y-162623268D01*
X223784086Y-162623731D01*
X224274380Y-162421146D01*
X224649827Y-162046353D01*
X224790094Y-161708554D01*
X224928854Y-162044380D01*
X225303647Y-162419827D01*
X225793587Y-162623268D01*
X226324086Y-162623731D01*
X226814380Y-162421146D01*
X227189827Y-162046353D01*
X227203000Y-162014629D01*
X227203000Y-166914309D01*
X227191146Y-166885620D01*
X226816353Y-166510173D01*
X226326413Y-166306732D01*
X225795914Y-166306269D01*
X225305620Y-166508854D01*
X224930173Y-166883647D01*
X224789906Y-167221446D01*
X224651146Y-166885620D01*
X224276353Y-166510173D01*
X223786413Y-166306732D01*
X223255914Y-166306269D01*
X222765620Y-166508854D01*
X222390173Y-166883647D01*
X222186732Y-167373587D01*
X222186269Y-167904086D01*
X222388854Y-168394380D01*
X222763647Y-168769827D01*
X223253587Y-168973268D01*
X223784086Y-168973731D01*
X224274380Y-168771146D01*
X224649827Y-168396353D01*
X224790094Y-168058554D01*
X224928854Y-168394380D01*
X225303647Y-168769827D01*
X225793587Y-168973268D01*
X226324086Y-168973731D01*
X226814380Y-168771146D01*
X227189827Y-168396353D01*
X227203000Y-168364629D01*
X227203000Y-168594370D01*
X225744370Y-170053000D01*
X223014642Y-170053000D01*
X222862286Y-169900378D01*
X222465668Y-169735687D01*
X222036216Y-169735313D01*
X221639311Y-169899311D01*
X221335378Y-170202714D01*
X221170687Y-170599332D01*
X221170313Y-171028784D01*
X221334311Y-171425689D01*
X221637714Y-171729622D01*
X222034332Y-171894313D01*
X222463784Y-171894687D01*
X222860689Y-171730689D01*
X223014646Y-171577000D01*
X226060000Y-171577000D01*
X226351605Y-171518996D01*
X226598815Y-171353815D01*
X228503815Y-169448815D01*
X228634390Y-169253396D01*
X228668996Y-169201605D01*
X228727000Y-168910000D01*
X228727000Y-168365691D01*
X228738854Y-168394380D01*
X229113647Y-168769827D01*
X229603587Y-168973268D01*
X230134086Y-168973731D01*
X230624380Y-168771146D01*
X230821681Y-168574188D01*
X231655417Y-168574188D01*
X231717071Y-168809800D01*
X232217480Y-168985927D01*
X232747199Y-168957148D01*
X233102929Y-168809800D01*
X233164583Y-168574188D01*
X232410000Y-167819605D01*
X231655417Y-168574188D01*
X230821681Y-168574188D01*
X230999827Y-168396353D01*
X231133314Y-168074882D01*
X231240200Y-168332929D01*
X231475812Y-168394583D01*
X232230395Y-167640000D01*
X232589605Y-167640000D01*
X233344188Y-168394583D01*
X233579800Y-168332929D01*
X233755927Y-167832520D01*
X233727148Y-167302801D01*
X233579800Y-166947071D01*
X233344188Y-166885417D01*
X232589605Y-167640000D01*
X232230395Y-167640000D01*
X231475812Y-166885417D01*
X231240200Y-166947071D01*
X231141917Y-167226312D01*
X231001146Y-166885620D01*
X230821652Y-166705812D01*
X231655417Y-166705812D01*
X232410000Y-167460395D01*
X233164583Y-166705812D01*
X233102929Y-166470200D01*
X232602520Y-166294073D01*
X232072801Y-166322852D01*
X231717071Y-166470200D01*
X231655417Y-166705812D01*
X230821652Y-166705812D01*
X230626353Y-166510173D01*
X230136413Y-166306732D01*
X229605914Y-166306269D01*
X229115620Y-166508854D01*
X228740173Y-166883647D01*
X228727000Y-166915371D01*
X228727000Y-162015691D01*
X228738854Y-162044380D01*
X229113647Y-162419827D01*
X229603587Y-162623268D01*
X230134086Y-162623731D01*
X230624380Y-162421146D01*
X230821681Y-162224188D01*
X231655417Y-162224188D01*
X231717071Y-162459800D01*
X232217480Y-162635927D01*
X232747199Y-162607148D01*
X233102929Y-162459800D01*
X233164583Y-162224188D01*
X232410000Y-161469605D01*
X231655417Y-162224188D01*
X230821681Y-162224188D01*
X230999827Y-162046353D01*
X231133314Y-161724882D01*
X231240200Y-161982929D01*
X231475812Y-162044583D01*
X232230395Y-161290000D01*
X232589605Y-161290000D01*
X233344188Y-162044583D01*
X233579800Y-161982929D01*
X233755927Y-161482520D01*
X233727148Y-160952801D01*
X233579800Y-160597071D01*
X233344188Y-160535417D01*
X232589605Y-161290000D01*
X232230395Y-161290000D01*
X231475812Y-160535417D01*
X231240200Y-160597071D01*
X231141917Y-160876312D01*
X231001146Y-160535620D01*
X230821652Y-160355812D01*
X231655417Y-160355812D01*
X232410000Y-161110395D01*
X233164583Y-160355812D01*
X233102929Y-160120200D01*
X232602520Y-159944073D01*
X232072801Y-159972852D01*
X231717071Y-160120200D01*
X231655417Y-160355812D01*
X230821652Y-160355812D01*
X230626353Y-160160173D01*
X230136413Y-159956732D01*
X229605914Y-159956269D01*
X229115620Y-160158854D01*
X228740173Y-160533647D01*
X228727000Y-160565371D01*
X228727000Y-155665691D01*
X228738854Y-155694380D01*
X229113647Y-156069827D01*
X229603587Y-156273268D01*
X230134086Y-156273731D01*
X230624380Y-156071146D01*
X230821681Y-155874188D01*
X231655417Y-155874188D01*
X231717071Y-156109800D01*
X232217480Y-156285927D01*
X232747199Y-156257148D01*
X233102929Y-156109800D01*
X233164583Y-155874188D01*
X232410000Y-155119605D01*
X231655417Y-155874188D01*
X230821681Y-155874188D01*
X230999827Y-155696353D01*
X231133314Y-155374882D01*
X231240200Y-155632929D01*
X231475812Y-155694583D01*
X232230395Y-154940000D01*
X232589605Y-154940000D01*
X233344188Y-155694583D01*
X233579800Y-155632929D01*
X233755927Y-155132520D01*
X233727148Y-154602801D01*
X233579800Y-154247071D01*
X233344188Y-154185417D01*
X232589605Y-154940000D01*
X232230395Y-154940000D01*
X231475812Y-154185417D01*
X231240200Y-154247071D01*
X231141917Y-154526312D01*
X231001146Y-154185620D01*
X230821652Y-154005812D01*
X231655417Y-154005812D01*
X232410000Y-154760395D01*
X233164583Y-154005812D01*
X233102929Y-153770200D01*
X232602520Y-153594073D01*
X232072801Y-153622852D01*
X231717071Y-153770200D01*
X231655417Y-154005812D01*
X230821652Y-154005812D01*
X230626353Y-153810173D01*
X230136413Y-153606732D01*
X229605914Y-153606269D01*
X229115620Y-153808854D01*
X228740173Y-154183647D01*
X228727000Y-154215371D01*
X228727000Y-149110000D01*
X231012560Y-149110000D01*
X231012560Y-150610000D01*
X231056838Y-150845317D01*
X231195910Y-151061441D01*
X231408110Y-151206431D01*
X231660000Y-151257440D01*
X233160000Y-151257440D01*
X233395317Y-151213162D01*
X233611441Y-151074090D01*
X233756431Y-150861890D01*
X233807440Y-150610000D01*
X233807440Y-149110000D01*
X233763162Y-148874683D01*
X233624090Y-148658559D01*
X233411890Y-148513569D01*
X233214738Y-148473645D01*
X233583461Y-148105564D01*
X233794759Y-147596702D01*
X233795240Y-147045715D01*
X233584831Y-146536485D01*
X233195564Y-146146539D01*
X232963130Y-146050024D01*
X233193515Y-145954831D01*
X233583461Y-145565564D01*
X233794759Y-145056702D01*
X233795240Y-144505715D01*
X233584831Y-143996485D01*
X233195564Y-143606539D01*
X232963130Y-143510024D01*
X233193515Y-143414831D01*
X233583461Y-143025564D01*
X233794759Y-142516702D01*
X233795240Y-141965715D01*
X233584831Y-141456485D01*
X233195564Y-141066539D01*
X232686702Y-140855241D01*
X232135715Y-140854760D01*
X231626485Y-141065169D01*
X231236539Y-141454436D01*
X231025241Y-141963298D01*
X231024760Y-142514285D01*
X231235169Y-143023515D01*
X231624436Y-143413461D01*
X231856870Y-143509976D01*
X231626485Y-143605169D01*
X231236539Y-143994436D01*
X231025241Y-144503298D01*
X231024760Y-145054285D01*
X231235169Y-145563515D01*
X231624436Y-145953461D01*
X231856870Y-146049976D01*
X231626485Y-146145169D01*
X231236539Y-146534436D01*
X231025241Y-147043298D01*
X231024760Y-147594285D01*
X231235169Y-148103515D01*
X231604091Y-148473080D01*
X231424683Y-148506838D01*
X231208559Y-148645910D01*
X231063569Y-148858110D01*
X231012560Y-149110000D01*
X228727000Y-149110000D01*
X228727000Y-138643784D01*
X230060313Y-138643784D01*
X230224311Y-139040689D01*
X230527714Y-139344622D01*
X230924332Y-139509313D01*
X231353784Y-139509687D01*
X231750689Y-139345689D01*
X231904646Y-139192000D01*
X232915358Y-139192000D01*
X233067714Y-139344622D01*
X233464332Y-139509313D01*
X233893784Y-139509687D01*
X234290689Y-139345689D01*
X234594622Y-139042286D01*
X234759313Y-138645668D01*
X234759687Y-138216216D01*
X234595689Y-137819311D01*
X234292286Y-137515378D01*
X233951292Y-137373784D01*
X235140313Y-137373784D01*
X235304311Y-137770689D01*
X235458000Y-137924646D01*
X235458000Y-138935358D01*
X235305378Y-139087714D01*
X235140687Y-139484332D01*
X235140313Y-139913784D01*
X235304311Y-140310689D01*
X235607714Y-140614622D01*
X236004332Y-140779313D01*
X236433784Y-140779687D01*
X236830689Y-140615689D01*
X237134622Y-140312286D01*
X237299313Y-139915668D01*
X237299687Y-139486216D01*
X237135689Y-139089311D01*
X236982000Y-138935354D01*
X236982000Y-137924642D01*
X237134622Y-137772286D01*
X237299313Y-137375668D01*
X237299687Y-136946216D01*
X237135689Y-136549311D01*
X236832286Y-136245378D01*
X236435668Y-136080687D01*
X236006216Y-136080313D01*
X235609311Y-136244311D01*
X235305378Y-136547714D01*
X235140687Y-136944332D01*
X235140313Y-137373784D01*
X233951292Y-137373784D01*
X233895668Y-137350687D01*
X233466216Y-137350313D01*
X233069311Y-137514311D01*
X232915354Y-137668000D01*
X231904642Y-137668000D01*
X231752286Y-137515378D01*
X231355668Y-137350687D01*
X230926216Y-137350313D01*
X230529311Y-137514311D01*
X230225378Y-137817714D01*
X230060687Y-138214332D01*
X230060313Y-138643784D01*
X228727000Y-138643784D01*
X228727000Y-136118231D01*
X228970000Y-136167440D01*
X230770000Y-136167440D01*
X231005317Y-136123162D01*
X231221441Y-135984090D01*
X231366431Y-135771890D01*
X231369719Y-135755656D01*
X231792509Y-136038155D01*
X232379928Y-136155000D01*
X232440072Y-136155000D01*
X233027491Y-136038155D01*
X233525481Y-135705409D01*
X233684501Y-135467418D01*
X234042424Y-135857966D01*
X234585258Y-136111046D01*
X234823000Y-135990997D01*
X234823000Y-134747000D01*
X235077000Y-134747000D01*
X235077000Y-135990997D01*
X235314742Y-136111046D01*
X235857576Y-135857966D01*
X236262240Y-135416417D01*
X236441036Y-134984740D01*
X236320378Y-134747000D01*
X235077000Y-134747000D01*
X234823000Y-134747000D01*
X234803000Y-134747000D01*
X234803000Y-134493000D01*
X234823000Y-134493000D01*
X234823000Y-133249003D01*
X235077000Y-133249003D01*
X235077000Y-134493000D01*
X236320378Y-134493000D01*
X236441036Y-134255260D01*
X236262240Y-133823583D01*
X235857576Y-133382034D01*
X235314742Y-133128954D01*
X235077000Y-133249003D01*
X234823000Y-133249003D01*
X234585258Y-133128954D01*
X234042424Y-133382034D01*
X233684501Y-133772582D01*
X233525481Y-133534591D01*
X233027491Y-133201845D01*
X232440072Y-133085000D01*
X232379928Y-133085000D01*
X231792509Y-133201845D01*
X231371974Y-133482837D01*
X231234090Y-133268559D01*
X231021890Y-133123569D01*
X230770000Y-133072560D01*
X228970000Y-133072560D01*
X228734683Y-133116838D01*
X228727000Y-133121782D01*
X228727000Y-129220630D01*
X229400190Y-128547440D01*
X230770000Y-128547440D01*
X231005317Y-128503162D01*
X231221441Y-128364090D01*
X231366431Y-128151890D01*
X231369719Y-128135656D01*
X231792509Y-128418155D01*
X232379928Y-128535000D01*
X232440072Y-128535000D01*
X233027491Y-128418155D01*
X233525481Y-128085409D01*
X233684501Y-127847418D01*
X234042424Y-128237966D01*
X234585258Y-128491046D01*
X234823000Y-128370997D01*
X234823000Y-127127000D01*
X235077000Y-127127000D01*
X235077000Y-128370997D01*
X235314742Y-128491046D01*
X235857576Y-128237966D01*
X236262240Y-127796417D01*
X236441036Y-127364740D01*
X236320378Y-127127000D01*
X235077000Y-127127000D01*
X234823000Y-127127000D01*
X234803000Y-127127000D01*
X234803000Y-126873000D01*
X234823000Y-126873000D01*
X234823000Y-125629003D01*
X235077000Y-125629003D01*
X235077000Y-126873000D01*
X236320378Y-126873000D01*
X236441036Y-126635260D01*
X236262240Y-126203583D01*
X235857576Y-125762034D01*
X235314742Y-125508954D01*
X235077000Y-125629003D01*
X234823000Y-125629003D01*
X234585258Y-125508954D01*
X234042424Y-125762034D01*
X233684501Y-126152582D01*
X233525481Y-125914591D01*
X233027491Y-125581845D01*
X232440072Y-125465000D01*
X232379928Y-125465000D01*
X231792509Y-125581845D01*
X231371974Y-125862837D01*
X231234090Y-125648559D01*
X231021890Y-125503569D01*
X230770000Y-125452560D01*
X228970000Y-125452560D01*
X228734683Y-125496838D01*
X228518559Y-125635910D01*
X228373569Y-125848110D01*
X228322560Y-126100000D01*
X228322560Y-127469810D01*
X227426185Y-128366185D01*
X227261004Y-128613395D01*
X227203000Y-128905000D01*
X227203000Y-154214309D01*
X227191146Y-154185620D01*
X226816353Y-153810173D01*
X226326413Y-153606732D01*
X225931243Y-153606387D01*
X225963815Y-153573815D01*
X225984405Y-153543000D01*
X226128996Y-153326605D01*
X226187000Y-153035000D01*
X226187000Y-130810000D01*
X226128996Y-130518395D01*
X226062834Y-130419377D01*
X225963816Y-130271185D01*
X225328815Y-129636185D01*
X225296333Y-129614481D01*
X225081605Y-129471004D01*
X224790000Y-129413000D01*
X220660630Y-129413000D01*
X219775569Y-128527939D01*
X220327491Y-128418155D01*
X220825481Y-128085409D01*
X220984501Y-127847418D01*
X221342424Y-128237966D01*
X221885258Y-128491046D01*
X222123000Y-128370997D01*
X222123000Y-127127000D01*
X222377000Y-127127000D01*
X222377000Y-128370997D01*
X222614742Y-128491046D01*
X223157576Y-128237966D01*
X223562240Y-127796417D01*
X223741036Y-127364740D01*
X223620378Y-127127000D01*
X222377000Y-127127000D01*
X222123000Y-127127000D01*
X222103000Y-127127000D01*
X222103000Y-126873000D01*
X222123000Y-126873000D01*
X222123000Y-125629003D01*
X222377000Y-125629003D01*
X222377000Y-126873000D01*
X223620378Y-126873000D01*
X223741036Y-126635260D01*
X223562240Y-126203583D01*
X223157576Y-125762034D01*
X222614742Y-125508954D01*
X222377000Y-125629003D01*
X222123000Y-125629003D01*
X221885258Y-125508954D01*
X221342424Y-125762034D01*
X220984501Y-126152582D01*
X220825481Y-125914591D01*
X220327491Y-125581845D01*
X219740072Y-125465000D01*
X219679928Y-125465000D01*
X219092509Y-125581845D01*
X218671974Y-125862837D01*
X218534090Y-125648559D01*
X218321890Y-125503569D01*
X218070000Y-125452560D01*
X216270000Y-125452560D01*
X216034683Y-125496838D01*
X215818559Y-125635910D01*
X215673569Y-125848110D01*
X215622560Y-126100000D01*
X215622560Y-126238000D01*
X213675630Y-126238000D01*
X209359499Y-121921869D01*
X209359687Y-121706216D01*
X209195689Y-121309311D01*
X208892286Y-121005378D01*
X208495668Y-120840687D01*
X208066216Y-120840313D01*
X207669311Y-121004311D01*
X207365378Y-121307714D01*
X207200687Y-121704332D01*
X207200511Y-121906917D01*
X207093880Y-121370849D01*
X206782811Y-120905302D01*
X206400725Y-120650000D01*
X206782811Y-120394698D01*
X207093880Y-119929151D01*
X207203113Y-119380000D01*
X207093880Y-118830849D01*
X206782811Y-118365302D01*
X206317264Y-118054233D01*
X205768113Y-117945000D01*
X205711887Y-117945000D01*
X205162736Y-118054233D01*
X204697189Y-118365302D01*
X204386120Y-118830849D01*
X204276887Y-119380000D01*
X204386120Y-119929151D01*
X204697189Y-120394698D01*
X205079275Y-120650000D01*
X204697189Y-120905302D01*
X204386120Y-121370849D01*
X204276887Y-121920000D01*
X204386120Y-122469151D01*
X204697189Y-122934698D01*
X205079275Y-123190000D01*
X204697189Y-123445302D01*
X204386120Y-123910849D01*
X204276887Y-124460000D01*
X204386120Y-125009151D01*
X204697189Y-125474698D01*
X205079275Y-125730000D01*
X204697189Y-125985302D01*
X204528341Y-126238000D01*
X201295000Y-126238000D01*
X201003395Y-126296004D01*
X200756184Y-126461185D01*
X198756869Y-128460501D01*
X198541216Y-128460313D01*
X198144311Y-128624311D01*
X197840378Y-128927714D01*
X197675687Y-129324332D01*
X197675313Y-129753784D01*
X197839311Y-130150689D01*
X198142714Y-130454622D01*
X198539332Y-130619313D01*
X198968784Y-130619687D01*
X199365689Y-130455689D01*
X199669622Y-130152286D01*
X199834313Y-129755668D01*
X199834502Y-129538128D01*
X201610631Y-127762000D01*
X204528341Y-127762000D01*
X204697189Y-128014698D01*
X205162736Y-128325767D01*
X205711887Y-128435000D01*
X205768113Y-128435000D01*
X206317264Y-128325767D01*
X206782811Y-128014698D01*
X207093880Y-127549151D01*
X207202990Y-127000620D01*
X211328000Y-131125630D01*
X211328000Y-131315358D01*
X211175378Y-131467714D01*
X211010687Y-131864332D01*
X211010610Y-131953000D01*
X201295000Y-131953000D01*
X201030970Y-132005519D01*
X201003395Y-132011004D01*
X200756185Y-132176185D01*
X198489810Y-134442560D01*
X197320000Y-134442560D01*
X197084683Y-134486838D01*
X196868559Y-134625910D01*
X196723569Y-134838110D01*
X196672560Y-135090000D01*
X196672560Y-136690000D01*
X196716838Y-136925317D01*
X196855910Y-137141441D01*
X197068110Y-137286431D01*
X197223089Y-137317815D01*
X197077189Y-137415302D01*
X196766120Y-137880849D01*
X196656887Y-138430000D01*
X190627000Y-138430000D01*
X190627000Y-127349039D01*
X196728096Y-127349039D01*
X196888959Y-127737423D01*
X197264866Y-128152389D01*
X197770959Y-128391914D01*
X197993000Y-128270629D01*
X197993000Y-127127000D01*
X198247000Y-127127000D01*
X198247000Y-128270629D01*
X198469041Y-128391914D01*
X198975134Y-128152389D01*
X199351041Y-127737423D01*
X199511904Y-127349039D01*
X199389915Y-127127000D01*
X198247000Y-127127000D01*
X197993000Y-127127000D01*
X196850085Y-127127000D01*
X196728096Y-127349039D01*
X190627000Y-127349039D01*
X190627000Y-127315630D01*
X193038131Y-124904499D01*
X193253784Y-124904687D01*
X193650689Y-124740689D01*
X193954622Y-124437286D01*
X194119313Y-124040668D01*
X194119687Y-123611216D01*
X193955689Y-123214311D01*
X193652286Y-122910378D01*
X193281300Y-122756331D01*
X193355631Y-122682000D01*
X196908341Y-122682000D01*
X197077189Y-122934698D01*
X197459275Y-123190000D01*
X197077189Y-123445302D01*
X196766120Y-123910849D01*
X196656887Y-124460000D01*
X196766120Y-125009151D01*
X197077189Y-125474698D01*
X197481703Y-125744986D01*
X197264866Y-125847611D01*
X196888959Y-126262577D01*
X196728096Y-126650961D01*
X196850085Y-126873000D01*
X197993000Y-126873000D01*
X197993000Y-126853000D01*
X198247000Y-126853000D01*
X198247000Y-126873000D01*
X199389915Y-126873000D01*
X199511904Y-126650961D01*
X199351041Y-126262577D01*
X198975134Y-125847611D01*
X198758297Y-125744986D01*
X199162811Y-125474698D01*
X199473880Y-125009151D01*
X199583113Y-124460000D01*
X199473880Y-123910849D01*
X199162811Y-123445302D01*
X198780725Y-123190000D01*
X199162811Y-122934698D01*
X199473880Y-122469151D01*
X199583113Y-121920000D01*
X199473880Y-121370849D01*
X199162811Y-120905302D01*
X199018535Y-120808899D01*
X199155317Y-120783162D01*
X199371441Y-120644090D01*
X199516431Y-120431890D01*
X199567440Y-120180000D01*
X199567440Y-120142000D01*
X200660000Y-120142000D01*
X200951605Y-120083996D01*
X201198815Y-119918815D01*
X205420631Y-115697000D01*
X212409370Y-115697000D01*
X215622560Y-118910191D01*
X215622560Y-120280000D01*
X215666838Y-120515317D01*
X215805910Y-120731441D01*
X216018110Y-120876431D01*
X216270000Y-120927440D01*
X218070000Y-120927440D01*
X218305317Y-120883162D01*
X218521441Y-120744090D01*
X218666431Y-120531890D01*
X218669719Y-120515656D01*
X219092509Y-120798155D01*
X219679928Y-120915000D01*
X219740072Y-120915000D01*
X220327491Y-120798155D01*
X220825481Y-120465409D01*
X220984501Y-120227418D01*
X221342424Y-120617966D01*
X221885258Y-120871046D01*
X222123000Y-120750997D01*
X222123000Y-119507000D01*
X222377000Y-119507000D01*
X222377000Y-120750997D01*
X222614742Y-120871046D01*
X223157576Y-120617966D01*
X223562240Y-120176417D01*
X223741036Y-119744740D01*
X223620378Y-119507000D01*
X222377000Y-119507000D01*
X222123000Y-119507000D01*
X222103000Y-119507000D01*
X222103000Y-119253000D01*
X222123000Y-119253000D01*
X222123000Y-118009003D01*
X222377000Y-118009003D01*
X222377000Y-119253000D01*
X223620378Y-119253000D01*
X223741036Y-119015260D01*
X223562240Y-118583583D01*
X223467310Y-118480000D01*
X228322560Y-118480000D01*
X228322560Y-120280000D01*
X228366838Y-120515317D01*
X228505910Y-120731441D01*
X228718110Y-120876431D01*
X228970000Y-120927440D01*
X230770000Y-120927440D01*
X231005317Y-120883162D01*
X231221441Y-120744090D01*
X231366431Y-120531890D01*
X231369719Y-120515656D01*
X231792509Y-120798155D01*
X232379928Y-120915000D01*
X232440072Y-120915000D01*
X233027491Y-120798155D01*
X233525481Y-120465409D01*
X233684501Y-120227418D01*
X234042424Y-120617966D01*
X234585258Y-120871046D01*
X234823000Y-120750997D01*
X234823000Y-119507000D01*
X235077000Y-119507000D01*
X235077000Y-120750997D01*
X235314742Y-120871046D01*
X235857576Y-120617966D01*
X236262240Y-120176417D01*
X236441036Y-119744740D01*
X236320378Y-119507000D01*
X235077000Y-119507000D01*
X234823000Y-119507000D01*
X234803000Y-119507000D01*
X234803000Y-119253000D01*
X234823000Y-119253000D01*
X234823000Y-118009003D01*
X235077000Y-118009003D01*
X235077000Y-119253000D01*
X236320378Y-119253000D01*
X236441036Y-119015260D01*
X236262240Y-118583583D01*
X235857576Y-118142034D01*
X235314742Y-117888954D01*
X235077000Y-118009003D01*
X234823000Y-118009003D01*
X234585258Y-117888954D01*
X234042424Y-118142034D01*
X233684501Y-118532582D01*
X233525481Y-118294591D01*
X233027491Y-117961845D01*
X232440072Y-117845000D01*
X232379928Y-117845000D01*
X231792509Y-117961845D01*
X231371974Y-118242837D01*
X231234090Y-118028559D01*
X231021890Y-117883569D01*
X230770000Y-117832560D01*
X228970000Y-117832560D01*
X228734683Y-117876838D01*
X228518559Y-118015910D01*
X228373569Y-118228110D01*
X228322560Y-118480000D01*
X223467310Y-118480000D01*
X223157576Y-118142034D01*
X222614742Y-117888954D01*
X222377000Y-118009003D01*
X222123000Y-118009003D01*
X221885258Y-117888954D01*
X221342424Y-118142034D01*
X220984501Y-118532582D01*
X220825481Y-118294591D01*
X220327491Y-117961845D01*
X219740072Y-117845000D01*
X219679928Y-117845000D01*
X219092509Y-117961845D01*
X218671974Y-118242837D01*
X218534090Y-118028559D01*
X218321890Y-117883569D01*
X218070000Y-117832560D01*
X216700191Y-117832560D01*
X213852630Y-114985000D01*
X239345000Y-114985000D01*
X239345000Y-178385000D01*
X165785000Y-178385000D01*
X165785000Y-171714086D01*
X171386269Y-171714086D01*
X171588854Y-172204380D01*
X171963647Y-172579827D01*
X172453587Y-172783268D01*
X172984086Y-172783731D01*
X173474380Y-172581146D01*
X173849827Y-172206353D01*
X173990094Y-171868554D01*
X174128854Y-172204380D01*
X174503647Y-172579827D01*
X174993587Y-172783268D01*
X175524086Y-172783731D01*
X176014380Y-172581146D01*
X176389827Y-172206353D01*
X176593268Y-171716413D01*
X176593270Y-171714086D01*
X177736269Y-171714086D01*
X177938854Y-172204380D01*
X178313647Y-172579827D01*
X178803587Y-172783268D01*
X179334086Y-172783731D01*
X179824380Y-172581146D01*
X180021681Y-172384188D01*
X180855417Y-172384188D01*
X180917071Y-172619800D01*
X181417480Y-172795927D01*
X181947199Y-172767148D01*
X182302929Y-172619800D01*
X182364583Y-172384188D01*
X181610000Y-171629605D01*
X180855417Y-172384188D01*
X180021681Y-172384188D01*
X180199827Y-172206353D01*
X180333314Y-171884882D01*
X180440200Y-172142929D01*
X180675812Y-172204583D01*
X181430395Y-171450000D01*
X181789605Y-171450000D01*
X182544188Y-172204583D01*
X182779800Y-172142929D01*
X182955927Y-171642520D01*
X182927148Y-171112801D01*
X182779800Y-170757071D01*
X182544188Y-170695417D01*
X181789605Y-171450000D01*
X181430395Y-171450000D01*
X180675812Y-170695417D01*
X180440200Y-170757071D01*
X180341917Y-171036312D01*
X180201146Y-170695620D01*
X180021652Y-170515812D01*
X180855417Y-170515812D01*
X181610000Y-171270395D01*
X182364583Y-170515812D01*
X182302929Y-170280200D01*
X181802520Y-170104073D01*
X181272801Y-170132852D01*
X180917071Y-170280200D01*
X180855417Y-170515812D01*
X180021652Y-170515812D01*
X179826353Y-170320173D01*
X179336413Y-170116732D01*
X178805914Y-170116269D01*
X178315620Y-170318854D01*
X177940173Y-170693647D01*
X177736732Y-171183587D01*
X177736269Y-171714086D01*
X176593270Y-171714086D01*
X176593731Y-171185914D01*
X176391146Y-170695620D01*
X176016353Y-170320173D01*
X175526413Y-170116732D01*
X174995914Y-170116269D01*
X174505620Y-170318854D01*
X174130173Y-170693647D01*
X173989906Y-171031446D01*
X173851146Y-170695620D01*
X173476353Y-170320173D01*
X172986413Y-170116732D01*
X172455914Y-170116269D01*
X171965620Y-170318854D01*
X171590173Y-170693647D01*
X171386732Y-171183587D01*
X171386269Y-171714086D01*
X165785000Y-171714086D01*
X165785000Y-159854694D01*
X165831185Y-159923815D01*
X168371184Y-162463815D01*
X168585697Y-162607148D01*
X168618395Y-162628996D01*
X168910000Y-162687000D01*
X171994309Y-162687000D01*
X171965620Y-162698854D01*
X171590173Y-163073647D01*
X171386732Y-163563587D01*
X171386269Y-164094086D01*
X171588854Y-164584380D01*
X171963647Y-164959827D01*
X172453587Y-165163268D01*
X172984086Y-165163731D01*
X173474380Y-164961146D01*
X173849827Y-164586353D01*
X173990094Y-164248554D01*
X174128854Y-164584380D01*
X174503647Y-164959827D01*
X174993587Y-165163268D01*
X175524086Y-165163731D01*
X176014380Y-164961146D01*
X176389827Y-164586353D01*
X176593268Y-164096413D01*
X176593731Y-163565914D01*
X176391146Y-163075620D01*
X176016353Y-162700173D01*
X175984629Y-162687000D01*
X178344309Y-162687000D01*
X178315620Y-162698854D01*
X177940173Y-163073647D01*
X177736732Y-163563587D01*
X177736269Y-164094086D01*
X177938854Y-164584380D01*
X178313647Y-164959827D01*
X178803587Y-165163268D01*
X179334086Y-165163731D01*
X179824380Y-164961146D01*
X180021681Y-164764188D01*
X180855417Y-164764188D01*
X180917071Y-164999800D01*
X181417480Y-165175927D01*
X181947199Y-165147148D01*
X182302929Y-164999800D01*
X182364583Y-164764188D01*
X181610000Y-164009605D01*
X180855417Y-164764188D01*
X180021681Y-164764188D01*
X180199827Y-164586353D01*
X180333314Y-164264882D01*
X180440200Y-164522929D01*
X180675812Y-164584583D01*
X181430395Y-163830000D01*
X181789605Y-163830000D01*
X182544188Y-164584583D01*
X182779800Y-164522929D01*
X182955927Y-164022520D01*
X182927148Y-163492801D01*
X182779800Y-163137071D01*
X182544188Y-163075417D01*
X181789605Y-163830000D01*
X181430395Y-163830000D01*
X181416253Y-163815858D01*
X181595858Y-163636253D01*
X181610000Y-163650395D01*
X182364583Y-162895812D01*
X182302929Y-162660200D01*
X181897794Y-162517606D01*
X182054313Y-162140668D01*
X182054667Y-161734335D01*
X182458784Y-161734687D01*
X182855689Y-161570689D01*
X183159622Y-161267286D01*
X183324313Y-160870668D01*
X183324687Y-160441216D01*
X183160689Y-160044311D01*
X182857286Y-159740378D01*
X182460668Y-159575687D01*
X182031216Y-159575313D01*
X181634311Y-159739311D01*
X181480354Y-159893000D01*
X169860630Y-159893000D01*
X168402000Y-158434370D01*
X168402000Y-147000630D01*
X168590631Y-146812000D01*
X168779880Y-146812000D01*
X168835519Y-146946657D01*
X169208471Y-147320261D01*
X168837086Y-147690997D01*
X168595276Y-148273341D01*
X168594725Y-148903893D01*
X168835519Y-149486657D01*
X169208471Y-149860261D01*
X168837086Y-150230997D01*
X168595276Y-150813341D01*
X168594725Y-151443893D01*
X168835519Y-152026657D01*
X169280997Y-152472914D01*
X169863341Y-152714724D01*
X170493893Y-152715275D01*
X171076657Y-152474481D01*
X171450261Y-152101529D01*
X171820997Y-152472914D01*
X172403341Y-152714724D01*
X173033893Y-152715275D01*
X173616657Y-152474481D01*
X173990261Y-152101529D01*
X174360997Y-152472914D01*
X174943341Y-152714724D01*
X175573893Y-152715275D01*
X176156657Y-152474481D01*
X176385186Y-152246350D01*
X176863255Y-152246350D01*
X176955792Y-152508019D01*
X177547398Y-152726188D01*
X178177461Y-152701352D01*
X178644208Y-152508019D01*
X178736745Y-152246350D01*
X177800000Y-151309605D01*
X176863255Y-152246350D01*
X176385186Y-152246350D01*
X176596116Y-152035789D01*
X176683650Y-152066745D01*
X177620395Y-151130000D01*
X176683650Y-150193255D01*
X176595561Y-150224407D01*
X176385172Y-150013650D01*
X176863255Y-150013650D01*
X177800000Y-150950395D01*
X178736745Y-150013650D01*
X178644208Y-149751981D01*
X178052602Y-149533812D01*
X177422539Y-149558648D01*
X176955792Y-149751981D01*
X176863255Y-150013650D01*
X176385172Y-150013650D01*
X176159003Y-149787086D01*
X175576659Y-149545276D01*
X174946107Y-149544725D01*
X174363343Y-149785519D01*
X173989739Y-150158471D01*
X173619003Y-149787086D01*
X173036659Y-149545276D01*
X172406107Y-149544725D01*
X171823343Y-149785519D01*
X171449739Y-150158471D01*
X171151529Y-149859739D01*
X171522914Y-149489003D01*
X171764724Y-148906659D01*
X171765275Y-148276107D01*
X171524481Y-147693343D01*
X171151529Y-147319739D01*
X171522914Y-146949003D01*
X171764724Y-146366659D01*
X171765275Y-145736107D01*
X171524481Y-145153343D01*
X171151529Y-144779739D01*
X171522914Y-144409003D01*
X171764724Y-143826659D01*
X171765275Y-143196107D01*
X171524481Y-142613343D01*
X171151529Y-142239739D01*
X171522914Y-141869003D01*
X171764724Y-141286659D01*
X171765275Y-140656107D01*
X171524481Y-140073343D01*
X171151529Y-139699739D01*
X171522914Y-139329003D01*
X171764724Y-138746659D01*
X171765275Y-138116107D01*
X171524481Y-137533343D01*
X171151529Y-137159739D01*
X171522914Y-136789003D01*
X171764724Y-136206659D01*
X171765275Y-135576107D01*
X171524481Y-134993343D01*
X171151529Y-134619739D01*
X171522914Y-134249003D01*
X171764724Y-133666659D01*
X171765275Y-133036107D01*
X171524481Y-132453343D01*
X171151529Y-132079739D01*
X171522914Y-131709003D01*
X171764724Y-131126659D01*
X171765275Y-130496107D01*
X171524481Y-129913343D01*
X171151529Y-129539739D01*
X171522914Y-129169003D01*
X171764724Y-128586659D01*
X171765275Y-127956107D01*
X171524481Y-127373343D01*
X171151529Y-126999739D01*
X171522914Y-126629003D01*
X171764724Y-126046659D01*
X171765275Y-125416107D01*
X171524481Y-124833343D01*
X171151529Y-124459739D01*
X171522914Y-124089003D01*
X171764724Y-123506659D01*
X171765275Y-122876107D01*
X171524481Y-122293343D01*
X171151529Y-121919739D01*
X171522914Y-121549003D01*
X171764724Y-120966659D01*
X171765275Y-120336107D01*
X171524481Y-119753343D01*
X171085789Y-119313884D01*
X171116745Y-119226350D01*
X170180000Y-118289605D01*
X169243255Y-119226350D01*
X169274407Y-119314439D01*
X168837086Y-119750997D01*
X168595276Y-120333341D01*
X168594725Y-120963893D01*
X168835519Y-121546657D01*
X169208471Y-121920261D01*
X168837086Y-122290997D01*
X168595276Y-122873341D01*
X168594725Y-123503893D01*
X168835519Y-124086657D01*
X169208471Y-124460261D01*
X168837086Y-124830997D01*
X168595276Y-125413341D01*
X168594725Y-126043893D01*
X168835519Y-126626657D01*
X169208471Y-127000261D01*
X168837086Y-127370997D01*
X168595276Y-127953341D01*
X168594725Y-128583893D01*
X168835519Y-129166657D01*
X169208471Y-129540261D01*
X168837086Y-129910997D01*
X168595276Y-130493341D01*
X168594725Y-131123893D01*
X168835519Y-131706657D01*
X169208471Y-132080261D01*
X168837086Y-132450997D01*
X168595276Y-133033341D01*
X168594725Y-133663893D01*
X168835519Y-134246657D01*
X169208471Y-134620261D01*
X168837086Y-134990997D01*
X168595276Y-135573341D01*
X168594725Y-136203893D01*
X168835519Y-136786657D01*
X169208471Y-137160261D01*
X168837086Y-137530997D01*
X168595276Y-138113341D01*
X168594725Y-138743893D01*
X168835519Y-139326657D01*
X169208471Y-139700261D01*
X168837086Y-140070997D01*
X168595276Y-140653341D01*
X168594725Y-141283893D01*
X168835519Y-141866657D01*
X169208471Y-142240261D01*
X168837086Y-142610997D01*
X168780197Y-142748000D01*
X167005000Y-142748000D01*
X166713395Y-142806004D01*
X166614377Y-142872166D01*
X166466185Y-142971184D01*
X165831185Y-143606185D01*
X165785000Y-143675306D01*
X165785000Y-117857398D01*
X168583812Y-117857398D01*
X168608648Y-118487461D01*
X168801981Y-118954208D01*
X169063650Y-119046745D01*
X170000395Y-118110000D01*
X170359605Y-118110000D01*
X171296350Y-119046745D01*
X171558019Y-118954208D01*
X171776188Y-118362602D01*
X171751352Y-117732539D01*
X171558019Y-117265792D01*
X171296350Y-117173255D01*
X170359605Y-118110000D01*
X170000395Y-118110000D01*
X169063650Y-117173255D01*
X168801981Y-117265792D01*
X168583812Y-117857398D01*
X165785000Y-117857398D01*
X165785000Y-116993650D01*
X169243255Y-116993650D01*
X170180000Y-117930395D01*
X171116745Y-116993650D01*
X171024208Y-116731981D01*
X170432602Y-116513812D01*
X169802539Y-116538648D01*
X169335792Y-116731981D01*
X169243255Y-116993650D01*
X165785000Y-116993650D01*
X165785000Y-114985000D01*
X203977369Y-114985000D01*
X201519423Y-117442947D01*
M02*
